<?xml version="1.0" encoding="UTF-8" standalone="no"?>
<!DOCTYPE svg PUBLIC "-//W3C//DTD SVG 1.1//EN"
 "http://www.w3.org/Graphics/SVG/1.1/DTD/svg11.dtd">
<!-- Generated by graphviz version 2.38.0 (20140413.2041)
 -->
<!-- Title: G Pages: 1 -->
<svg width="4144pt" height="1052pt"
 viewBox="0.00 0.00 4143.69 1052.00" xmlns="http://www.w3.org/2000/svg" xmlns:xlink="http://www.w3.org/1999/xlink">
<g id="graph0" class="graph" transform="scale(1 1) rotate(0) translate(4 1048)">
<title>G</title>
<polygon fill="white" stroke="none" points="-4,4 -4,-1048 4139.69,-1048 4139.69,4 -4,4"/>
<!-- ice_particle.h -->
<g id="node1" class="node"><title>ice_particle.h</title>
<ellipse fill="none" stroke="black" cx="2767.69" cy="-522" rx="58.4896" ry="18"/>
<text text-anchor="middle" x="2767.69" y="-518.3" font-family="Times,serif" font-size="14.00">ice_particle.h</text>
</g>
<!-- solid.h -->
<g id="node2" class="node"><title>solid.h</title>
<ellipse fill="none" stroke="black" cx="3169.69" cy="-378" rx="34.394" ry="18"/>
<text text-anchor="middle" x="3169.69" y="-374.3" font-family="Times,serif" font-size="14.00">solid.h</text>
</g>
<!-- ice_particle.h&#45;&gt;solid.h -->
<g id="edge1" class="edge"><title>ice_particle.h&#45;&gt;solid.h</title>
<path fill="none" stroke="blue" d="M2770.94,-503.827C2775.8,-483.248 2787.04,-449.374 2810.69,-432 2859.92,-395.833 3040.55,-384.047 3125.27,-380.458"/>
<polygon fill="blue" stroke="blue" points="3125.5,-383.952 3135.35,-380.051 3125.22,-376.957 3125.5,-383.952"/>
</g>
<!-- solid.o -->
<g id="node3" class="node"><title>solid.o</title>
<ellipse fill="none" stroke="black" cx="2853.69" cy="-450" rx="34.394" ry="18"/>
<text text-anchor="middle" x="2853.69" y="-446.3" font-family="Times,serif" font-size="14.00">solid.o</text>
</g>
<!-- ice_particle.h&#45;&gt;solid.o -->
<g id="edge2" class="edge"><title>ice_particle.h&#45;&gt;solid.o</title>
<path fill="none" stroke="red" d="M2787.64,-504.765C2799.6,-495.024 2814.95,-482.531 2827.84,-472.039"/>
<polygon fill="red" stroke="red" points="2830.35,-474.51 2835.9,-465.483 2825.93,-469.081 2830.35,-474.51"/>
</g>
<!-- volume_convex.o -->
<g id="node32" class="node"><title>volume_convex.o</title>
<ellipse fill="none" stroke="black" cx="3597.69" cy="-306" rx="74.187" ry="18"/>
<text text-anchor="middle" x="3597.69" y="-302.3" font-family="Times,serif" font-size="14.00">volume_convex.o</text>
</g>
<!-- solid.h&#45;&gt;volume_convex.o -->
<g id="edge57" class="edge"><title>solid.h&#45;&gt;volume_convex.o</title>
<path fill="none" stroke="red" d="M3202.21,-371.681C3271.38,-360.368 3434.42,-333.703 3528.14,-318.375"/>
<polygon fill="red" stroke="red" points="3528.8,-321.814 3538.1,-316.746 3527.67,-314.906 3528.8,-321.814"/>
</g>
<!-- volume_convex.h -->
<g id="node33" class="node"><title>volume_convex.h</title>
<ellipse fill="none" stroke="black" cx="3569.69" cy="-234" rx="74.187" ry="18"/>
<text text-anchor="middle" x="3569.69" y="-230.3" font-family="Times,serif" font-size="14.00">volume_convex.h</text>
</g>
<!-- solid.h&#45;&gt;volume_convex.h -->
<g id="edge56" class="edge"><title>solid.h&#45;&gt;volume_convex.h</title>
<path fill="none" stroke="blue" d="M3203.65,-374.055C3254.41,-368.783 3352.37,-355.213 3429.69,-324 3471.14,-307.267 3513.79,-278.111 3540.95,-257.745"/>
<polygon fill="blue" stroke="blue" points="3543.36,-260.308 3549.2,-251.469 3539.12,-254.737 3543.36,-260.308"/>
</g>
<!-- solid_deformation.h -->
<g id="node37" class="node"><title>solid_deformation.h</title>
<ellipse fill="none" stroke="black" cx="3478.69" cy="-162" rx="82.5854" ry="18"/>
<text text-anchor="middle" x="3478.69" y="-158.3" font-family="Times,serif" font-size="14.00">solid_deformation.h</text>
</g>
<!-- solid.h&#45;&gt;solid_deformation.h -->
<g id="edge58" class="edge"><title>solid.h&#45;&gt;solid_deformation.h</title>
<path fill="none" stroke="blue" d="M3189.97,-362.959C3242.41,-326.636 3382.89,-229.345 3446.55,-185.259"/>
<polygon fill="blue" stroke="blue" points="3448.78,-187.975 3455.01,-179.404 3444.79,-182.22 3448.78,-187.975"/>
</g>
<!-- solid.o&#45;&gt;solid.h -->
<g id="edge55" class="edge"><title>solid.o&#45;&gt;solid.h</title>
<path fill="none" stroke="blue" d="M2884.86,-442.097C2942.2,-429.393 3064.43,-402.317 3128.52,-388.119"/>
<polygon fill="blue" stroke="blue" points="3129.29,-391.535 3138.29,-385.955 3127.77,-384.701 3129.29,-391.535"/>
</g>
<!-- ice_particle.o -->
<g id="node4" class="node"><title>ice_particle.o</title>
<ellipse fill="none" stroke="black" cx="2615.69" cy="-594" rx="58.4896" ry="18"/>
<text text-anchor="middle" x="2615.69" y="-590.3" font-family="Times,serif" font-size="14.00">ice_particle.o</text>
</g>
<!-- ice_particle.o&#45;&gt;ice_particle.h -->
<g id="edge3" class="edge"><title>ice_particle.o&#45;&gt;ice_particle.h</title>
<path fill="none" stroke="blue" d="M2646.82,-578.666C2670.08,-567.954 2702.07,-553.22 2727.3,-541.601"/>
<polygon fill="blue" stroke="blue" points="2728.99,-544.677 2736.61,-537.315 2726.06,-538.319 2728.99,-544.677"/>
</g>
<!-- snowflake_generate -->
<g id="node5" class="node"><title>snowflake_generate</title>
<ellipse fill="none" stroke="black" cx="2649.69" cy="-1026" rx="81.4863" ry="18"/>
<text text-anchor="middle" x="2649.69" y="-1022.3" font-family="Times,serif" font-size="14.00">snowflake_generate</text>
</g>
<!-- aggregate_graph.h -->
<g id="node6" class="node"><title>aggregate_graph.h</title>
<ellipse fill="none" stroke="black" cx="2895.69" cy="-810" rx="76.0865" ry="18"/>
<text text-anchor="middle" x="2895.69" y="-806.3" font-family="Times,serif" font-size="14.00">aggregate_graph.h</text>
</g>
<!-- snowflake_generate&#45;&gt;aggregate_graph.h -->
<g id="edge4" class="edge"><title>snowflake_generate&#45;&gt;aggregate_graph.h</title>
<path fill="none" stroke="blue" d="M2712.66,-1014.61C2743.39,-1006.98 2779.31,-993.962 2805.69,-972 2849.03,-935.916 2875.33,-873.282 2887.53,-837.707"/>
<polygon fill="blue" stroke="blue" points="2890.92,-838.607 2890.73,-828.014 2884.27,-836.411 2890.92,-838.607"/>
</g>
<!-- aggregate_graph.o -->
<g id="node7" class="node"><title>aggregate_graph.o</title>
<ellipse fill="none" stroke="black" cx="2649.69" cy="-882" rx="76.0865" ry="18"/>
<text text-anchor="middle" x="2649.69" y="-878.3" font-family="Times,serif" font-size="14.00">aggregate_graph.o</text>
</g>
<!-- snowflake_generate&#45;&gt;aggregate_graph.o -->
<g id="edge5" class="edge"><title>snowflake_generate&#45;&gt;aggregate_graph.o</title>
<path fill="none" stroke="red" d="M2649.69,-1007.87C2649.69,-983.67 2649.69,-939.211 2649.69,-910.393"/>
<polygon fill="red" stroke="red" points="2653.19,-910.189 2649.69,-900.189 2646.19,-910.189 2653.19,-910.189"/>
</g>
<!-- aggregate_graph_loader.h -->
<g id="node8" class="node"><title>aggregate_graph_loader.h</title>
<ellipse fill="none" stroke="black" cx="102.691" cy="-522" rx="102.882" ry="18"/>
<text text-anchor="middle" x="102.691" y="-518.3" font-family="Times,serif" font-size="14.00">aggregate_graph_loader.h</text>
</g>
<!-- snowflake_generate&#45;&gt;aggregate_graph_loader.h -->
<g id="edge6" class="edge"><title>snowflake_generate&#45;&gt;aggregate_graph_loader.h</title>
<path fill="none" stroke="blue" d="M2568.54,-1024.52C2162.84,-1021.98 369.662,-1008.7 257.691,-972 192.194,-950.534 130.691,-951.925 130.691,-883 130.691,-883 130.691,-883 130.691,-665 130.691,-624.27 119.465,-578.189 111.23,-549.862"/>
<polygon fill="blue" stroke="blue" points="114.579,-548.847 108.357,-540.272 107.874,-550.856 114.579,-548.847"/>
</g>
<!-- aggregate_graph_loader.o -->
<g id="node9" class="node"><title>aggregate_graph_loader.o</title>
<ellipse fill="none" stroke="black" cx="1297.69" cy="-954" rx="102.882" ry="18"/>
<text text-anchor="middle" x="1297.69" y="-950.3" font-family="Times,serif" font-size="14.00">aggregate_graph_loader.o</text>
</g>
<!-- snowflake_generate&#45;&gt;aggregate_graph_loader.o -->
<g id="edge7" class="edge"><title>snowflake_generate&#45;&gt;aggregate_graph_loader.o</title>
<path fill="none" stroke="red" d="M2571.65,-1020.96C2342.05,-1009.07 1668.49,-974.198 1405.06,-960.559"/>
<polygon fill="red" stroke="red" points="1404.89,-957.045 1394.72,-960.024 1404.52,-964.036 1404.89,-957.045"/>
</g>
<!-- config_parser.h -->
<g id="node10" class="node"><title>config_parser.h</title>
<ellipse fill="none" stroke="black" cx="1487.69" cy="-522" rx="65.7887" ry="18"/>
<text text-anchor="middle" x="1487.69" y="-518.3" font-family="Times,serif" font-size="14.00">config_parser.h</text>
</g>
<!-- snowflake_generate&#45;&gt;config_parser.h -->
<g id="edge8" class="edge"><title>snowflake_generate&#45;&gt;config_parser.h</title>
<path fill="none" stroke="blue" d="M2568.48,-1024.94C2269.59,-1024.33 1240.87,-1018.83 1101.69,-972 1036.71,-950.134 975.691,-951.561 975.691,-883 975.691,-883 975.691,-883 975.691,-665 975.691,-518.172 1351.47,-550.698 1412.69,-540 1418.42,-538.999 1424.37,-537.846 1430.3,-536.623"/>
<polygon fill="blue" stroke="blue" points="1431.17,-540.016 1440.22,-534.51 1429.71,-533.169 1431.17,-540.016"/>
</g>
<!-- config_parser.o -->
<g id="node11" class="node"><title>config_parser.o</title>
<ellipse fill="none" stroke="black" cx="1297.69" cy="-594" rx="65.7887" ry="18"/>
<text text-anchor="middle" x="1297.69" y="-590.3" font-family="Times,serif" font-size="14.00">config_parser.o</text>
</g>
<!-- snowflake_generate&#45;&gt;config_parser.o -->
<g id="edge9" class="edge"><title>snowflake_generate&#45;&gt;config_parser.o</title>
<path fill="none" stroke="red" d="M2568.23,-1024.72C2279.71,-1023.36 1316.78,-1015.57 1185.69,-972 1122.45,-950.983 1059.58,-926.861 1081.69,-864 1119.54,-756.425 1220.57,-660.066 1269.87,-617.747"/>
<polygon fill="red" stroke="red" points="1272.23,-620.326 1277.6,-611.189 1267.71,-614.988 1272.23,-620.326"/>
</g>
<!-- solid_builder_bbc.h -->
<g id="node12" class="node"><title>solid_builder_bbc.h</title>
<ellipse fill="none" stroke="black" cx="2796.69" cy="-738" rx="81.4863" ry="18"/>
<text text-anchor="middle" x="2796.69" y="-734.3" font-family="Times,serif" font-size="14.00">solid_builder_bbc.h</text>
</g>
<!-- snowflake_generate&#45;&gt;solid_builder_bbc.h -->
<g id="edge10" class="edge"><title>snowflake_generate&#45;&gt;solid_builder_bbc.h</title>
<path fill="none" stroke="blue" d="M2663.13,-1008C2681.12,-984.656 2713.26,-940.918 2734.69,-900 2758.39,-854.747 2778.03,-798.336 2788.5,-765.716"/>
<polygon fill="blue" stroke="blue" points="2791.89,-766.596 2791.57,-756.006 2785.22,-764.485 2791.89,-766.596"/>
</g>
<!-- solid_builder_bbc.o -->
<g id="node13" class="node"><title>solid_builder_bbc.o</title>
<ellipse fill="none" stroke="black" cx="3113.69" cy="-810" rx="81.4863" ry="18"/>
<text text-anchor="middle" x="3113.69" y="-806.3" font-family="Times,serif" font-size="14.00">solid_builder_bbc.o</text>
</g>
<!-- snowflake_generate&#45;&gt;solid_builder_bbc.o -->
<g id="edge11" class="edge"><title>snowflake_generate&#45;&gt;solid_builder_bbc.o</title>
<path fill="none" stroke="red" d="M2705.86,-1012.84C2743.42,-1003.78 2793.5,-989.901 2835.69,-972 2929.66,-932.133 3031.35,-866.985 3081.7,-833.077"/>
<polygon fill="red" stroke="red" points="3083.88,-835.825 3090.2,-827.32 3079.96,-830.029 3083.88,-835.825"/>
</g>
<!-- solid_writer.h -->
<g id="node14" class="node"><title>solid_writer.h</title>
<ellipse fill="none" stroke="black" cx="2037.69" cy="-522" rx="59.5901" ry="18"/>
<text text-anchor="middle" x="2037.69" y="-518.3" font-family="Times,serif" font-size="14.00">solid_writer.h</text>
</g>
<!-- snowflake_generate&#45;&gt;solid_writer.h -->
<g id="edge12" class="edge"><title>snowflake_generate&#45;&gt;solid_writer.h</title>
<path fill="none" stroke="blue" d="M2569.07,-1023.41C2400.39,-1017.88 2025.69,-993.2 2025.69,-883 2025.69,-883 2025.69,-883 2025.69,-665 2025.69,-624.853 2030.51,-578.548 2034.04,-550.022"/>
<polygon fill="blue" stroke="blue" points="2037.53,-550.373 2035.32,-540.01 2030.58,-549.487 2037.53,-550.373"/>
</g>
<!-- solid_writer.o -->
<g id="node15" class="node"><title>solid_writer.o</title>
<ellipse fill="none" stroke="black" cx="2151.69" cy="-594" rx="59.5901" ry="18"/>
<text text-anchor="middle" x="2151.69" y="-590.3" font-family="Times,serif" font-size="14.00">solid_writer.o</text>
</g>
<!-- snowflake_generate&#45;&gt;solid_writer.o -->
<g id="edge13" class="edge"><title>snowflake_generate&#45;&gt;solid_writer.o</title>
<path fill="none" stroke="red" d="M2577.73,-1017.41C2450.4,-1001.96 2198.69,-961.497 2198.69,-883 2198.69,-883 2198.69,-883 2198.69,-737 2198.69,-694.723 2179.68,-648.788 2165.84,-620.946"/>
<polygon fill="red" stroke="red" points="2168.88,-619.193 2161.2,-611.889 2162.65,-622.385 2168.88,-619.193"/>
</g>
<!-- solid_writer_prototype.h -->
<g id="node16" class="node"><title>solid_writer_prototype.h</title>
<ellipse fill="none" stroke="black" cx="3125.69" cy="-522" rx="98.2828" ry="18"/>
<text text-anchor="middle" x="3125.69" y="-518.3" font-family="Times,serif" font-size="14.00">solid_writer_prototype.h</text>
</g>
<!-- snowflake_generate&#45;&gt;solid_writer_prototype.h -->
<g id="edge14" class="edge"><title>snowflake_generate&#45;&gt;solid_writer_prototype.h</title>
<path fill="none" stroke="blue" d="M2731.11,-1025.93C2919.93,-1025.91 3371.69,-1012.35 3371.69,-883 3371.69,-883 3371.69,-883 3371.69,-809 3371.69,-725.916 3343.01,-698.046 3276.69,-648 3226.09,-609.819 3180.98,-659.22 3138.69,-612 3123.84,-595.412 3121.5,-569.691 3122.34,-550.157"/>
<polygon fill="blue" stroke="blue" points="3125.84,-550.266 3123.07,-540.039 3118.86,-549.759 3125.84,-550.266"/>
</g>
<!-- solid_writer_prototype.o -->
<g id="node17" class="node"><title>solid_writer_prototype.o</title>
<ellipse fill="none" stroke="black" cx="3245.69" cy="-594" rx="98.2828" ry="18"/>
<text text-anchor="middle" x="3245.69" y="-590.3" font-family="Times,serif" font-size="14.00">solid_writer_prototype.o</text>
</g>
<!-- snowflake_generate&#45;&gt;solid_writer_prototype.o -->
<g id="edge15" class="edge"><title>snowflake_generate&#45;&gt;solid_writer_prototype.o</title>
<path fill="none" stroke="red" d="M2730.81,-1024.38C2911.69,-1022.25 3336.09,-1012.91 3385.69,-972 3417.3,-945.933 3409.69,-923.969 3409.69,-883 3409.69,-883 3409.69,-883 3409.69,-737 3409.69,-676.623 3345.38,-636.179 3297.3,-614.38"/>
<polygon fill="red" stroke="red" points="3298.49,-611.08 3287.92,-610.269 3295.68,-617.49 3298.49,-611.08"/>
</g>
<!-- voxelbuilder_adda.h -->
<g id="node18" class="node"><title>voxelbuilder_adda.h</title>
<ellipse fill="none" stroke="black" cx="3748.69" cy="-522" rx="83.3857" ry="18"/>
<text text-anchor="middle" x="3748.69" y="-518.3" font-family="Times,serif" font-size="14.00">voxelbuilder_adda.h</text>
</g>
<!-- snowflake_generate&#45;&gt;voxelbuilder_adda.h -->
<g id="edge16" class="edge"><title>snowflake_generate&#45;&gt;voxelbuilder_adda.h</title>
<path fill="none" stroke="blue" d="M2730.71,-1023.71C2996,-1018.42 3821.69,-993.102 3821.69,-883 3821.69,-883 3821.69,-883 3821.69,-665 3821.69,-619.782 3792.05,-574.534 3770.54,-547.654"/>
<polygon fill="blue" stroke="blue" points="3773.23,-545.414 3764.17,-539.922 3767.83,-549.865 3773.23,-545.414"/>
</g>
<!-- voxelbuilder_adda.o -->
<g id="node19" class="node"><title>voxelbuilder_adda.o</title>
<ellipse fill="none" stroke="black" cx="3634.69" cy="-594" rx="83.3857" ry="18"/>
<text text-anchor="middle" x="3634.69" y="-590.3" font-family="Times,serif" font-size="14.00">voxelbuilder_adda.o</text>
</g>
<!-- snowflake_generate&#45;&gt;voxelbuilder_adda.o -->
<g id="edge17" class="edge"><title>snowflake_generate&#45;&gt;voxelbuilder_adda.o</title>
<path fill="none" stroke="red" d="M2730,-1022.91C2898.59,-1017.96 3284.32,-1003.47 3411.69,-972 3506.93,-948.468 3613.69,-981.106 3613.69,-883 3613.69,-883 3613.69,-883 3613.69,-737 3613.69,-696.782 3622.04,-650.839 3628.21,-622.372"/>
<polygon fill="red" stroke="red" points="3631.68,-622.889 3630.44,-612.366 3624.84,-621.362 3631.68,-622.889"/>
</g>
<!-- file_out.h -->
<g id="node20" class="node"><title>file_out.h</title>
<ellipse fill="none" stroke="black" cx="2011.69" cy="-306" rx="44.6926" ry="18"/>
<text text-anchor="middle" x="2011.69" y="-302.3" font-family="Times,serif" font-size="14.00">file_out.h</text>
</g>
<!-- snowflake_generate&#45;&gt;file_out.h -->
<g id="edge18" class="edge"><title>snowflake_generate&#45;&gt;file_out.h</title>
<path fill="none" stroke="blue" d="M2568.52,-1024.49C2151.75,-1021.35 271.691,-1000.68 271.691,-883 271.691,-883 271.691,-883 271.691,-593 271.691,-418.505 415.894,-390.566 587.691,-360 857.858,-311.933 1729.12,-307.373 1956.82,-307.012"/>
<polygon fill="blue" stroke="blue" points="1956.87,-310.512 1966.86,-306.998 1956.86,-303.512 1956.87,-310.512"/>
</g>
<!-- aggregate_node.h -->
<g id="node28" class="node"><title>aggregate_node.h</title>
<ellipse fill="none" stroke="black" cx="3194.69" cy="-666" rx="73.387" ry="18"/>
<text text-anchor="middle" x="3194.69" y="-662.3" font-family="Times,serif" font-size="14.00">aggregate_node.h</text>
</g>
<!-- aggregate_graph.h&#45;&gt;aggregate_node.h -->
<g id="edge62" class="edge"><title>aggregate_graph.h&#45;&gt;aggregate_node.h</title>
<path fill="none" stroke="blue" d="M2923.86,-793.225C2957.26,-774.765 3014.81,-743.709 3065.69,-720 3092.33,-707.586 3122.71,-695.029 3147.29,-685.255"/>
<polygon fill="blue" stroke="blue" points="3148.74,-688.446 3156.76,-681.516 3146.17,-681.936 3148.74,-688.446"/>
</g>
<!-- aggregate_node.o -->
<g id="node29" class="node"><title>aggregate_node.o</title>
<ellipse fill="none" stroke="black" cx="3156.69" cy="-738" rx="73.387" ry="18"/>
<text text-anchor="middle" x="3156.69" y="-734.3" font-family="Times,serif" font-size="14.00">aggregate_node.o</text>
</g>
<!-- aggregate_graph.h&#45;&gt;aggregate_node.o -->
<g id="edge63" class="edge"><title>aggregate_graph.h&#45;&gt;aggregate_node.o</title>
<path fill="none" stroke="red" d="M2944.17,-795.998C2987.98,-784.247 3052.54,-766.934 3098.99,-754.475"/>
<polygon fill="red" stroke="red" points="3100.16,-757.786 3108.91,-751.815 3098.35,-751.025 3100.16,-757.786"/>
</g>
<!-- aggregate_graph.o&#45;&gt;aggregate_graph.h -->
<g id="edge64" class="edge"><title>aggregate_graph.o&#45;&gt;aggregate_graph.h</title>
<path fill="none" stroke="blue" d="M2696.25,-867.751C2736.83,-856.205 2795.79,-839.426 2839.09,-827.107"/>
<polygon fill="blue" stroke="blue" points="2840.24,-830.417 2848.9,-824.313 2838.33,-823.684 2840.24,-830.417"/>
</g>
<!-- ice_particle_visitor.h -->
<g id="node25" class="node"><title>ice_particle_visitor.h</title>
<ellipse fill="none" stroke="black" cx="2762.69" cy="-666" rx="85.2851" ry="18"/>
<text text-anchor="middle" x="2762.69" y="-662.3" font-family="Times,serif" font-size="14.00">ice_particle_visitor.h</text>
</g>
<!-- aggregate_graph.o&#45;&gt;ice_particle_visitor.h -->
<g id="edge65" class="edge"><title>aggregate_graph.o&#45;&gt;ice_particle_visitor.h</title>
<path fill="none" stroke="blue" d="M2654.6,-864.016C2665.21,-827.881 2690.65,-744.671 2706.69,-720 2713.82,-709.041 2723.66,-698.731 2733.1,-690.169"/>
<polygon fill="blue" stroke="blue" points="2735.62,-692.614 2740.87,-683.412 2731.03,-687.331 2735.62,-692.614"/>
</g>
<!-- twins.h -->
<g id="node35" class="node"><title>twins.h</title>
<ellipse fill="none" stroke="black" cx="2353.69" cy="-234" rx="36.2938" ry="18"/>
<text text-anchor="middle" x="2353.69" y="-230.3" font-family="Times,serif" font-size="14.00">twins.h</text>
</g>
<!-- aggregate_graph.o&#45;&gt;twins.h -->
<g id="edge66" class="edge"><title>aggregate_graph.o&#45;&gt;twins.h</title>
<path fill="none" stroke="blue" d="M2645.35,-863.838C2635.85,-821.945 2617.9,-713.126 2668.69,-648 2699.29,-608.767 2728.73,-631.044 2774.69,-612 2799.76,-601.615 3198.36,-419.04 3212.69,-396 3221.14,-382.413 3223.16,-372.101 3212.69,-360 3158.79,-297.691 2570.22,-250.625 2399.72,-238.224"/>
<polygon fill="blue" stroke="blue" points="2399.79,-234.72 2389.57,-237.491 2399.29,-241.702 2399.79,-234.72"/>
</g>
<!-- vector.h -->
<g id="node26" class="node"><title>vector.h</title>
<ellipse fill="none" stroke="black" cx="3672.69" cy="-18" rx="39.7935" ry="18"/>
<text text-anchor="middle" x="3672.69" y="-14.3" font-family="Times,serif" font-size="14.00">vector.h</text>
</g>
<!-- aggregate_graph_loader.h&#45;&gt;vector.h -->
<g id="edge149" class="edge"><title>aggregate_graph_loader.h&#45;&gt;vector.h</title>
<path fill="none" stroke="blue" d="M112.429,-503.68C126.196,-477.525 149.691,-426.002 149.691,-379 149.691,-379 149.691,-379 149.691,-161 149.691,-110.676 174.594,-94.3342 219.691,-72 299.468,-32.4905 3205.08,-20.6672 3622.86,-19.1701"/>
<polygon fill="blue" stroke="blue" points="3623.11,-22.6693 3633.1,-19.1337 3623.09,-15.6693 3623.11,-22.6693"/>
</g>
<!-- vector.o -->
<g id="node27" class="node"><title>vector.o</title>
<ellipse fill="none" stroke="black" cx="3672.69" cy="-90" rx="39.7935" ry="18"/>
<text text-anchor="middle" x="3672.69" y="-86.3" font-family="Times,serif" font-size="14.00">vector.o</text>
</g>
<!-- aggregate_graph_loader.h&#45;&gt;vector.o -->
<g id="edge150" class="edge"><title>aggregate_graph_loader.h&#45;&gt;vector.o</title>
<path fill="none" stroke="red" d="M147.094,-505.748C197.165,-485.39 271.691,-444.148 271.691,-379 271.691,-379 271.691,-379 271.691,-233 271.691,-145.227 3202.34,-98.048 3622.72,-91.732"/>
<polygon fill="red" stroke="red" points="3623.08,-95.2271 3633.02,-91.5778 3622.97,-88.2279 3623.08,-95.2271"/>
</g>
<!-- config_commandhandler.h -->
<g id="node30" class="node"><title>config_commandhandler.h</title>
<ellipse fill="none" stroke="black" cx="1350.69" cy="-450" rx="106.681" ry="18"/>
<text text-anchor="middle" x="1350.69" y="-446.3" font-family="Times,serif" font-size="14.00">config_commandhandler.h</text>
</g>
<!-- aggregate_graph_loader.h&#45;&gt;config_commandhandler.h -->
<g id="edge148" class="edge"><title>aggregate_graph_loader.h&#45;&gt;config_commandhandler.h</title>
<path fill="none" stroke="blue" d="M193.649,-513.601C234.861,-510.392 284.215,-506.748 328.691,-504 659.114,-483.582 742.133,-486.104 1072.69,-468 1128.82,-464.926 1191.3,-461.138 1242.78,-457.919"/>
<polygon fill="blue" stroke="blue" points="1243.17,-461.402 1252.93,-457.283 1242.73,-454.416 1243.17,-461.402"/>
</g>
<!-- aggregate_graph_loader.o&#45;&gt;aggregate_graph.h -->
<g id="edge143" class="edge"><title>aggregate_graph_loader.o&#45;&gt;aggregate_graph.h</title>
<path fill="none" stroke="blue" d="M1399.97,-951.97C1706.98,-948.496 2607.32,-935.379 2734.69,-900 2784.06,-886.289 2834.77,-854.814 2865.76,-833.222"/>
<polygon fill="blue" stroke="blue" points="2867.82,-836.051 2873.96,-827.417 2863.78,-830.338 2867.82,-836.051"/>
</g>
<!-- aggregate_graph_loader.o&#45;&gt;aggregate_graph.o -->
<g id="edge144" class="edge"><title>aggregate_graph_loader.o&#45;&gt;aggregate_graph.o</title>
<path fill="none" stroke="red" d="M1394.65,-947.98C1648.28,-934.848 2328.11,-899.65 2566.05,-887.33"/>
<polygon fill="red" stroke="red" points="2566.56,-890.809 2576.37,-886.796 2566.2,-883.818 2566.56,-890.809"/>
</g>
<!-- aggregate_graph_loader.o&#45;&gt;aggregate_graph_loader.h -->
<g id="edge140" class="edge"><title>aggregate_graph_loader.o&#45;&gt;aggregate_graph_loader.h</title>
<path fill="none" stroke="blue" d="M1215.03,-943.232C1037.76,-919.698 611.54,-849.125 295.691,-684 225.947,-647.538 158.679,-582.539 125.016,-547.312"/>
<polygon fill="blue" stroke="blue" points="127.381,-544.718 117.968,-539.855 122.293,-549.527 127.381,-544.718"/>
</g>
<!-- aggregate_graph_loader.o&#45;&gt;config_parser.h -->
<g id="edge146" class="edge"><title>aggregate_graph_loader.o&#45;&gt;config_parser.h</title>
<path fill="none" stroke="blue" d="M1218.36,-942.544C1192.83,-935 1167.17,-922.082 1151.69,-900 1069.05,-782.077 1057.08,-684.557 1151.69,-576 1190.16,-531.862 1355.09,-550.481 1412.69,-540 1418.33,-538.974 1424.18,-537.814 1430.03,-536.595"/>
<polygon fill="blue" stroke="blue" points="1430.76,-540.017 1439.8,-534.498 1429.29,-533.172 1430.76,-540.017"/>
</g>
<!-- aggregate_graph_loader.o&#45;&gt;config_parser.o -->
<g id="edge147" class="edge"><title>aggregate_graph_loader.o&#45;&gt;config_parser.o</title>
<path fill="none" stroke="red" d="M1297.69,-935.951C1297.69,-909.292 1297.69,-856.115 1297.69,-811 1297.69,-811 1297.69,-811 1297.69,-737 1297.69,-696.996 1297.69,-650.653 1297.69,-622.08"/>
<polygon fill="red" stroke="red" points="1301.19,-622.049 1297.69,-612.049 1294.19,-622.049 1301.19,-622.049"/>
</g>
<!-- solid_loader.h -->
<g id="node22" class="node"><title>solid_loader.h</title>
<ellipse fill="none" stroke="black" cx="1632.69" cy="-522" rx="61.1893" ry="18"/>
<text text-anchor="middle" x="1632.69" y="-518.3" font-family="Times,serif" font-size="14.00">solid_loader.h</text>
</g>
<!-- aggregate_graph_loader.o&#45;&gt;solid_loader.h -->
<g id="edge141" class="edge"><title>aggregate_graph_loader.o&#45;&gt;solid_loader.h</title>
<path fill="none" stroke="blue" d="M1266.07,-936.846C1227.02,-914.376 1165.69,-869.735 1165.69,-811 1165.69,-811 1165.69,-811 1165.69,-665 1165.69,-618.027 1182.73,-600.685 1222.69,-576 1287.33,-536.072 1487.83,-552.994 1562.69,-540 1568,-539.078 1573.51,-537.984 1579,-536.802"/>
<polygon fill="blue" stroke="blue" points="1579.83,-540.205 1588.82,-534.598 1578.29,-533.375 1579.83,-540.205"/>
</g>
<!-- solid_loader.o -->
<g id="node23" class="node"><title>solid_loader.o</title>
<ellipse fill="none" stroke="black" cx="1708.69" cy="-594" rx="61.1893" ry="18"/>
<text text-anchor="middle" x="1708.69" y="-590.3" font-family="Times,serif" font-size="14.00">solid_loader.o</text>
</g>
<!-- aggregate_graph_loader.o&#45;&gt;solid_loader.o -->
<g id="edge142" class="edge"><title>aggregate_graph_loader.o&#45;&gt;solid_loader.o</title>
<path fill="none" stroke="red" d="M1399.26,-950.948C1497.53,-942.917 1631.69,-913.232 1631.69,-811 1631.69,-811 1631.69,-811 1631.69,-737 1631.69,-691.253 1662.96,-646.15 1685.64,-619.445"/>
<polygon fill="red" stroke="red" points="1688.41,-621.597 1692.36,-611.768 1683.14,-616.987 1688.41,-621.597"/>
</g>
<!-- config_command.h -->
<g id="node31" class="node"><title>config_command.h</title>
<ellipse fill="none" stroke="black" cx="1323.69" cy="-522" rx="79.8859" ry="18"/>
<text text-anchor="middle" x="1323.69" y="-518.3" font-family="Times,serif" font-size="14.00">config_command.h</text>
</g>
<!-- aggregate_graph_loader.o&#45;&gt;config_command.h -->
<g id="edge145" class="edge"><title>aggregate_graph_loader.o&#45;&gt;config_command.h</title>
<path fill="none" stroke="blue" d="M1210.49,-944.438C1176.83,-937.215 1140.15,-924.022 1113.69,-900 1057.18,-848.694 950.268,-634.165 999.691,-576 1029.26,-541.201 1148.75,-529.2 1234.01,-525.092"/>
<polygon fill="blue" stroke="blue" points="1234.4,-528.578 1244.23,-524.629 1234.08,-521.585 1234.4,-528.578"/>
</g>
<!-- file_in.h -->
<g id="node24" class="node"><title>file_in.h</title>
<ellipse fill="none" stroke="black" cx="1632.69" cy="-450" rx="40.0939" ry="18"/>
<text text-anchor="middle" x="1632.69" y="-446.3" font-family="Times,serif" font-size="14.00">file_in.h</text>
</g>
<!-- config_parser.h&#45;&gt;file_in.h -->
<g id="edge75" class="edge"><title>config_parser.h&#45;&gt;file_in.h</title>
<path fill="none" stroke="blue" d="M1518.8,-505.983C1541.72,-494.918 1572.94,-479.846 1596.9,-468.28"/>
<polygon fill="blue" stroke="blue" points="1598.53,-471.377 1606.02,-463.877 1595.49,-465.073 1598.53,-471.377"/>
</g>
<!-- config_parser.o&#45;&gt;config_parser.h -->
<g id="edge76" class="edge"><title>config_parser.o&#45;&gt;config_parser.h</title>
<path fill="none" stroke="blue" d="M1335.23,-579.17C1365.42,-568.049 1408,-552.359 1440.5,-540.388"/>
<polygon fill="blue" stroke="blue" points="1442.06,-543.542 1450.23,-536.801 1439.64,-536.974 1442.06,-543.542"/>
</g>
<!-- config_parser.o&#45;&gt;config_commandhandler.h -->
<g id="edge77" class="edge"><title>config_parser.o&#45;&gt;config_commandhandler.h</title>
<path fill="none" stroke="blue" d="M1270.03,-577.632C1256.7,-568.587 1242.05,-555.809 1234.69,-540 1227.94,-525.495 1226.04,-517.461 1234.69,-504 1245.14,-487.741 1261.95,-476.408 1279.56,-468.532"/>
<polygon fill="blue" stroke="blue" points="1280.91,-471.764 1288.82,-464.72 1278.24,-465.291 1280.91,-471.764"/>
</g>
<!-- config_parser.o&#45;&gt;config_command.h -->
<g id="edge78" class="edge"><title>config_parser.o&#45;&gt;config_command.h</title>
<path fill="none" stroke="blue" d="M1303.98,-576.055C1306.91,-568.176 1310.46,-558.617 1313.74,-549.794"/>
<polygon fill="blue" stroke="blue" points="1317.07,-550.868 1317.27,-540.275 1310.51,-548.431 1317.07,-550.868"/>
</g>
<!-- solid_builder_bbc.h&#45;&gt;ice_particle_visitor.h -->
<g id="edge35" class="edge"><title>solid_builder_bbc.h&#45;&gt;ice_particle_visitor.h</title>
<path fill="none" stroke="blue" d="M2788.46,-720.055C2784.59,-712.091 2779.89,-702.411 2775.57,-693.51"/>
<polygon fill="blue" stroke="blue" points="2778.6,-691.741 2771.08,-684.275 2772.3,-694.8 2778.6,-691.741"/>
</g>
<!-- solid_builder_bbc.h&#45;&gt;vector.h -->
<g id="edge36" class="edge"><title>solid_builder_bbc.h&#45;&gt;vector.h</title>
<path fill="none" stroke="blue" d="M2715.75,-736.209C2319.12,-732.199 595.479,-713.154 485.691,-684 357.236,-649.889 233.691,-655.907 233.691,-523 233.691,-523 233.691,-523 233.691,-161 233.691,-72.1799 3201.64,-25.8364 3623.13,-19.7027"/>
<polygon fill="blue" stroke="blue" points="3623.23,-23.2018 3633.18,-19.5572 3623.13,-16.2025 3623.23,-23.2018"/>
</g>
<!-- solid_builder_bbc.h&#45;&gt;vector.o -->
<g id="edge37" class="edge"><title>solid_builder_bbc.h&#45;&gt;vector.o</title>
<path fill="none" stroke="red" d="M2875.73,-733.78C2933.57,-728.681 3012.48,-715.864 3074.69,-684 3095.4,-673.394 3091.32,-657.192 3112.69,-648 3248.85,-589.438 3645.68,-677.394 3778.69,-612 3954.56,-525.534 3839.04,-144.479 3838.69,-144 3812.22,-107.968 3760.98,-95.8755 3722.4,-92.09"/>
<polygon fill="red" stroke="red" points="3722.64,-88.5981 3712.39,-91.263 3722.07,-95.5743 3722.64,-88.5981"/>
</g>
<!-- solid_builder_bbc.o&#45;&gt;solid.h -->
<g id="edge41" class="edge"><title>solid_builder_bbc.o&#45;&gt;solid.h</title>
<path fill="none" stroke="blue" d="M3169.53,-796.911C3202.37,-788.376 3243.94,-775.037 3277.69,-756 3320.23,-732.009 3335.97,-726.114 3360.69,-684 3377.24,-655.811 3372.34,-644.515 3375.69,-612 3380.63,-564.087 3387.55,-547.417 3366.69,-504 3347.37,-463.77 3333.59,-457.105 3296.69,-432 3269.54,-413.529 3234.94,-399.615 3208.71,-390.688"/>
<polygon fill="blue" stroke="blue" points="3209.69,-387.327 3199.1,-387.512 3207.5,-393.974 3209.69,-387.327"/>
</g>
<!-- solid_builder_bbc.o&#45;&gt;solid.o -->
<g id="edge42" class="edge"><title>solid_builder_bbc.o&#45;&gt;solid.o</title>
<path fill="none" stroke="red" d="M3160.88,-795.282C3185.63,-786.598 3215.54,-773.643 3238.69,-756 3314.01,-698.61 3395.46,-660.488 3352.69,-576 3328.28,-527.779 3304.83,-524.174 3254.69,-504 3190.61,-478.219 2988.24,-460.765 2897.94,-454.063"/>
<polygon fill="red" stroke="red" points="2897.99,-450.557 2887.76,-453.318 2897.48,-457.539 2897.99,-450.557"/>
</g>
<!-- solid_builder_bbc.o&#45;&gt;solid_builder_bbc.h -->
<g id="edge38" class="edge"><title>solid_builder_bbc.o&#45;&gt;solid_builder_bbc.h</title>
<path fill="none" stroke="blue" d="M3058.11,-796.727C3003.31,-784.625 2919.58,-766.136 2861.71,-753.358"/>
<polygon fill="blue" stroke="blue" points="2862.46,-749.939 2851.94,-751.2 2860.95,-756.774 2862.46,-749.939"/>
</g>
<!-- solid_builder_bbc.o&#45;&gt;aggregate_node.h -->
<g id="edge39" class="edge"><title>solid_builder_bbc.o&#45;&gt;aggregate_node.h</title>
<path fill="none" stroke="blue" d="M3096.65,-792.098C3080.09,-773.553 3059.5,-743.322 3074.69,-720 3087.04,-701.053 3107.86,-688.83 3128.72,-680.966"/>
<polygon fill="blue" stroke="blue" points="3129.98,-684.234 3138.28,-677.651 3127.69,-677.621 3129.98,-684.234"/>
</g>
<!-- solid_builder_bbc.o&#45;&gt;aggregate_node.o -->
<g id="edge40" class="edge"><title>solid_builder_bbc.o&#45;&gt;aggregate_node.o</title>
<path fill="none" stroke="red" d="M3124.1,-792.055C3129.1,-783.922 3135.19,-773.998 3140.75,-764.943"/>
<polygon fill="red" stroke="red" points="3143.83,-766.628 3146.08,-756.275 3137.86,-762.964 3143.83,-766.628"/>
</g>
<!-- solid_writer.o&#45;&gt;solid.h -->
<g id="edge99" class="edge"><title>solid_writer.o&#45;&gt;solid.h</title>
<path fill="none" stroke="blue" d="M2157.06,-575.721C2164.3,-555.362 2179.19,-522.031 2203.69,-504 2318.31,-419.652 2375.06,-453.806 2515.69,-432 2743.38,-396.696 3019.54,-384.094 3125.44,-380.359"/>
<polygon fill="blue" stroke="blue" points="3125.57,-383.856 3135.44,-380.015 3125.33,-376.86 3125.57,-383.856"/>
</g>
<!-- solid_writer.o&#45;&gt;solid.o -->
<g id="edge100" class="edge"><title>solid_writer.o&#45;&gt;solid.o</title>
<path fill="none" stroke="red" d="M2166.45,-576.396C2186.25,-555.398 2223.57,-520.05 2263.69,-504 2362.75,-464.373 2688.81,-454.165 2808.83,-451.719"/>
<polygon fill="red" stroke="red" points="2809.19,-455.213 2819.12,-451.519 2809.06,-448.214 2809.19,-455.213"/>
</g>
<!-- solid_writer.o&#45;&gt;solid_writer.h -->
<g id="edge98" class="edge"><title>solid_writer.o&#45;&gt;solid_writer.h</title>
<path fill="none" stroke="blue" d="M2126.67,-577.638C2110.6,-567.768 2089.51,-554.817 2071.89,-544.001"/>
<polygon fill="blue" stroke="blue" points="2073.4,-540.818 2063.04,-538.568 2069.73,-546.783 2073.4,-540.818"/>
</g>
<!-- solid_writer.o&#45;&gt;file_out.h -->
<g id="edge101" class="edge"><title>solid_writer.o&#45;&gt;file_out.h</title>
<path fill="none" stroke="blue" d="M2144.69,-575.827C2136.77,-557.312 2122.84,-527.355 2106.69,-504 2094.35,-486.148 2085.12,-486.45 2073.69,-468 2046.64,-424.35 2028.01,-366.955 2018.66,-333.804"/>
<polygon fill="blue" stroke="blue" points="2021.98,-332.655 2015.95,-323.94 2015.23,-334.51 2021.98,-332.655"/>
</g>
<!-- solid_writer_prototype.o&#45;&gt;solid.h -->
<g id="edge32" class="edge"><title>solid_writer_prototype.o&#45;&gt;solid.h</title>
<path fill="none" stroke="blue" d="M3251.34,-575.876C3256.45,-557.66 3262.14,-528.194 3254.69,-504 3242.4,-464.062 3212.51,-425.448 3191.68,-401.961"/>
<polygon fill="blue" stroke="blue" points="3194.04,-399.358 3184.73,-394.307 3188.86,-404.064 3194.04,-399.358"/>
</g>
<!-- solid_writer_prototype.o&#45;&gt;solid.o -->
<g id="edge33" class="edge"><title>solid_writer_prototype.o&#45;&gt;solid.o</title>
<path fill="none" stroke="red" d="M3248.65,-575.952C3251.07,-555.82 3251.52,-522.714 3232.69,-504 3186.46,-458.047 2988.42,-451.401 2898.46,-450.803"/>
<polygon fill="red" stroke="red" points="2898.32,-447.303 2888.3,-450.759 2898.29,-454.303 2898.32,-447.303"/>
</g>
<!-- solid_writer_prototype.o&#45;&gt;solid_writer_prototype.h -->
<g id="edge31" class="edge"><title>solid_writer_prototype.o&#45;&gt;solid_writer_prototype.h</title>
<path fill="none" stroke="blue" d="M3217.56,-576.588C3201.16,-567.022 3180.28,-554.845 3162.58,-544.518"/>
<polygon fill="blue" stroke="blue" points="3164.05,-541.325 3153.65,-539.309 3160.52,-547.371 3164.05,-541.325"/>
</g>
<!-- solid_writer_prototype.o&#45;&gt;file_out.h -->
<g id="edge34" class="edge"><title>solid_writer_prototype.o&#45;&gt;file_out.h</title>
<path fill="none" stroke="blue" d="M3256.06,-576.031C3261.59,-565.957 3267.84,-552.707 3270.69,-540 3289.06,-457.982 3281.29,-408.562 3212.69,-360 3165.37,-326.505 2295.32,-311.226 2066.47,-307.776"/>
<polygon fill="blue" stroke="blue" points="2066.42,-304.275 2056.37,-307.625 2066.32,-311.274 2066.42,-304.275"/>
</g>
<!-- voxel_builder.h -->
<g id="node34" class="node"><title>voxel_builder.h</title>
<ellipse fill="none" stroke="black" cx="3727.69" cy="-234" rx="66.0889" ry="18"/>
<text text-anchor="middle" x="3727.69" y="-230.3" font-family="Times,serif" font-size="14.00">voxel_builder.h</text>
</g>
<!-- voxelbuilder_adda.h&#45;&gt;voxel_builder.h -->
<g id="edge160" class="edge"><title>voxelbuilder_adda.h&#45;&gt;voxel_builder.h</title>
<path fill="none" stroke="blue" d="M3747.44,-503.966C3743.94,-456.291 3734.02,-321.185 3729.72,-262.63"/>
<polygon fill="blue" stroke="blue" points="3733.18,-262.023 3728.96,-252.306 3726.2,-262.536 3733.18,-262.023"/>
</g>
<!-- bounding_box.h -->
<g id="node36" class="node"><title>bounding_box.h</title>
<ellipse fill="none" stroke="black" cx="3761.69" cy="-162" rx="68.4888" ry="18"/>
<text text-anchor="middle" x="3761.69" y="-158.3" font-family="Times,serif" font-size="14.00">bounding_box.h</text>
</g>
<!-- voxelbuilder_adda.h&#45;&gt;bounding_box.h -->
<g id="edge161" class="edge"><title>voxelbuilder_adda.h&#45;&gt;bounding_box.h</title>
<path fill="none" stroke="blue" d="M3764.17,-504.078C3785.6,-478.828 3821.69,-428.895 3821.69,-379 3821.69,-379 3821.69,-379 3821.69,-305 3821.69,-264.553 3819.71,-252.691 3802.69,-216 3798.06,-206.028 3791.27,-196.195 3784.53,-187.759"/>
<polygon fill="blue" stroke="blue" points="3787,-185.257 3777.9,-179.834 3781.63,-189.75 3787,-185.257"/>
</g>
<!-- voxelbuilder_adda.o&#45;&gt;voxelbuilder_adda.h -->
<g id="edge162" class="edge"><title>voxelbuilder_adda.o&#45;&gt;voxelbuilder_adda.h</title>
<path fill="none" stroke="blue" d="M3661.13,-576.765C3676.81,-567.135 3696.88,-554.814 3713.84,-544.397"/>
<polygon fill="blue" stroke="blue" points="3715.7,-547.363 3722.39,-539.147 3712.04,-541.397 3715.7,-547.363"/>
</g>
<!-- voxelbuilder_adda.o&#45;&gt;file_out.h -->
<g id="edge165" class="edge"><title>voxelbuilder_adda.o&#45;&gt;file_out.h</title>
<path fill="none" stroke="blue" d="M3619.09,-576.034C3600.86,-556.88 3569.17,-525.581 3537.69,-504 3418.67,-422.406 3386.46,-395.869 3246.69,-360 3131.59,-330.463 2291.23,-312.363 2066.71,-308.02"/>
<polygon fill="blue" stroke="blue" points="2066.56,-304.516 2056.49,-307.823 2066.42,-311.515 2066.56,-304.516"/>
</g>
<!-- voxelbuilder_adda.o&#45;&gt;volume_convex.o -->
<g id="edge164" class="edge"><title>voxelbuilder_adda.o&#45;&gt;volume_convex.o</title>
<path fill="none" stroke="red" d="M3630.72,-575.889C3628.42,-565.544 3625.61,-552.065 3623.69,-540 3611.89,-465.888 3603.6,-377.67 3599.89,-334.107"/>
<polygon fill="red" stroke="red" points="3603.37,-333.702 3599.04,-324.03 3596.39,-334.287 3603.37,-333.702"/>
</g>
<!-- voxelbuilder_adda.o&#45;&gt;volume_convex.h -->
<g id="edge163" class="edge"><title>voxelbuilder_adda.o&#45;&gt;volume_convex.h</title>
<path fill="none" stroke="blue" d="M3638.65,-575.632C3652.36,-514.636 3696.19,-312.572 3680.69,-288 3669.53,-270.304 3650.66,-258.39 3631.61,-250.425"/>
<polygon fill="blue" stroke="blue" points="3632.86,-247.158 3622.27,-246.824 3630.34,-253.689 3632.86,-247.158"/>
</g>
<!-- mergetest -->
<g id="node21" class="node"><title>mergetest</title>
<ellipse fill="none" stroke="black" cx="1911.69" cy="-666" rx="45.4919" ry="18"/>
<text text-anchor="middle" x="1911.69" y="-662.3" font-family="Times,serif" font-size="14.00">mergetest</text>
</g>
<!-- mergetest&#45;&gt;ice_particle.h -->
<g id="edge29" class="edge"><title>mergetest&#45;&gt;ice_particle.h</title>
<path fill="none" stroke="blue" d="M1954.98,-660.263C2020.24,-652.679 2147.5,-636.165 2253.69,-612 2307.57,-599.739 2318.69,-587.712 2372.69,-576 2487.07,-551.193 2622.76,-536.029 2701.65,-528.595"/>
<polygon fill="blue" stroke="blue" points="2702.29,-532.051 2711.93,-527.641 2701.65,-525.081 2702.29,-532.051"/>
</g>
<!-- mergetest&#45;&gt;solid.h -->
<g id="edge27" class="edge"><title>mergetest&#45;&gt;solid.h</title>
<path fill="none" stroke="blue" d="M1912.62,-647.779C1915.35,-614.777 1926.14,-542.49 1968.69,-504 1993.63,-481.438 2229.43,-437.002 2262.69,-432 2590.72,-382.668 2991.9,-378.621 3124.67,-378.748"/>
<polygon fill="blue" stroke="blue" points="3124.85,-382.248 3134.86,-378.766 3124.86,-375.248 3124.85,-382.248"/>
</g>
<!-- mergetest&#45;&gt;solid.o -->
<g id="edge28" class="edge"><title>mergetest&#45;&gt;solid.o</title>
<path fill="none" stroke="red" d="M1955.42,-661.013C2029.41,-653.69 2175.66,-636.565 2220.69,-612 2239.75,-601.606 2234.82,-586.731 2253.69,-576 2439.91,-470.09 2704.34,-453.453 2808.77,-451.177"/>
<polygon fill="red" stroke="red" points="2809.02,-454.673 2818.96,-450.991 2808.9,-447.675 2809.02,-454.673"/>
</g>
<!-- mergetest&#45;&gt;ice_particle.o -->
<g id="edge30" class="edge"><title>mergetest&#45;&gt;ice_particle.o</title>
<path fill="none" stroke="red" d="M1956.52,-662.146C2056.31,-655.548 2304.28,-637.807 2510.69,-612 2525.5,-610.148 2541.43,-607.77 2556.3,-605.384"/>
<polygon fill="red" stroke="red" points="2557.08,-608.802 2566.39,-603.736 2555.95,-601.893 2557.08,-608.802"/>
</g>
<!-- mergetest&#45;&gt;config_parser.h -->
<g id="edge25" class="edge"><title>mergetest&#45;&gt;config_parser.h</title>
<path fill="none" stroke="blue" d="M1867.19,-661.868C1786.27,-655.568 1618.65,-639.558 1567.69,-612 1540.31,-597.193 1517.58,-569.232 1503.43,-548.587"/>
<polygon fill="blue" stroke="blue" points="1506.16,-546.376 1497.73,-539.968 1500.33,-550.239 1506.16,-546.376"/>
</g>
<!-- mergetest&#45;&gt;config_parser.o -->
<g id="edge26" class="edge"><title>mergetest&#45;&gt;config_parser.o</title>
<path fill="none" stroke="red" d="M1867.84,-660.859C1781.28,-652.564 1582.39,-632.907 1415.69,-612 1398.94,-609.899 1380.88,-607.411 1364.05,-604.996"/>
<polygon fill="red" stroke="red" points="1364.15,-601.474 1353.76,-603.506 1363.15,-608.402 1364.15,-601.474"/>
</g>
<!-- mergetest&#45;&gt;solid_writer.h -->
<g id="edge23" class="edge"><title>mergetest&#45;&gt;solid_writer.h</title>
<path fill="none" stroke="blue" d="M1927.97,-649.094C1938.41,-638.737 1952.11,-624.817 1963.69,-612 1982.85,-590.795 2003.56,-565.683 2018.18,-547.549"/>
<polygon fill="blue" stroke="blue" points="2020.92,-549.736 2024.45,-539.747 2015.46,-545.354 2020.92,-549.736"/>
</g>
<!-- mergetest&#45;&gt;solid_writer.o -->
<g id="edge24" class="edge"><title>mergetest&#45;&gt;solid_writer.o</title>
<path fill="none" stroke="red" d="M1947.1,-654.671C1987.56,-642.873 2054.1,-623.464 2100.26,-609.999"/>
<polygon fill="red" stroke="red" points="2101.46,-613.297 2110.08,-607.137 2099.5,-606.577 2101.46,-613.297"/>
</g>
<!-- mergetest&#45;&gt;file_out.h -->
<g id="edge22" class="edge"><title>mergetest&#45;&gt;file_out.h</title>
<path fill="none" stroke="blue" d="M1866.54,-663.199C1716.78,-657.01 1244.62,-635.684 1222.69,-612 1218.71,-607.705 1222.4,-543.611 1225.69,-504 1228.36,-471.862 1212.29,-455.201 1234.69,-432 1334.69,-328.422 1796.63,-310.668 1956.81,-307.627"/>
<polygon fill="blue" stroke="blue" points="1956.98,-311.125 1966.92,-307.448 1956.86,-304.126 1956.98,-311.125"/>
</g>
<!-- mergetest&#45;&gt;solid_loader.h -->
<g id="edge19" class="edge"><title>mergetest&#45;&gt;solid_loader.h</title>
<path fill="none" stroke="blue" d="M1866.88,-662.739C1797.3,-658.216 1668.21,-645.436 1638.69,-612 1624.08,-595.444 1623.88,-569.719 1626.58,-550.176"/>
<polygon fill="blue" stroke="blue" points="1630.07,-550.497 1628.3,-540.052 1623.17,-549.324 1630.07,-550.497"/>
</g>
<!-- mergetest&#45;&gt;solid_loader.o -->
<g id="edge20" class="edge"><title>mergetest&#45;&gt;solid_loader.o</title>
<path fill="none" stroke="red" d="M1878.62,-653.597C1845.52,-642.182 1794.23,-624.497 1756.66,-611.54"/>
<polygon fill="red" stroke="red" points="1757.53,-608.139 1746.94,-608.188 1755.25,-614.757 1757.53,-608.139"/>
</g>
<!-- mergetest&#45;&gt;file_in.h -->
<g id="edge21" class="edge"><title>mergetest&#45;&gt;file_in.h</title>
<path fill="none" stroke="blue" d="M1891.85,-649.628C1854.77,-620.918 1772.4,-557.237 1702.69,-504 1688.78,-493.375 1673.26,-481.616 1660.38,-471.88"/>
<polygon fill="blue" stroke="blue" points="1662.43,-469.04 1652.34,-465.806 1658.21,-474.626 1662.43,-469.04"/>
</g>
<!-- solid_loader.h&#45;&gt;file_in.h -->
<g id="edge43" class="edge"><title>solid_loader.h&#45;&gt;file_in.h</title>
<path fill="none" stroke="blue" d="M1632.69,-503.697C1632.69,-495.983 1632.69,-486.712 1632.69,-478.112"/>
<polygon fill="blue" stroke="blue" points="1636.19,-478.104 1632.69,-468.104 1629.19,-478.104 1636.19,-478.104"/>
</g>
<!-- solid_loader.h&#45;&gt;config_commandhandler.h -->
<g id="edge44" class="edge"><title>solid_loader.h&#45;&gt;config_commandhandler.h</title>
<path fill="none" stroke="blue" d="M1587.38,-509.753C1541.6,-498.389 1470.34,-480.699 1417.96,-467.698"/>
<polygon fill="blue" stroke="blue" points="1418.63,-464.258 1408.08,-465.245 1416.94,-471.051 1418.63,-464.258"/>
</g>
<!-- solid_loader.o&#45;&gt;solid.h -->
<g id="edge46" class="edge"><title>solid_loader.o&#45;&gt;solid.h</title>
<path fill="none" stroke="blue" d="M1735.32,-577.709C1769.08,-558.739 1829.43,-526.19 1883.69,-504 1982.05,-463.778 2007.1,-450.812 2111.69,-432 2311.02,-396.146 2950.5,-382.755 3125.22,-379.714"/>
<polygon fill="blue" stroke="blue" points="3125.4,-383.212 3135.34,-379.541 3125.28,-376.213 3125.4,-383.212"/>
</g>
<!-- solid_loader.o&#45;&gt;solid.o -->
<g id="edge47" class="edge"><title>solid_loader.o&#45;&gt;solid.o</title>
<path fill="none" stroke="red" d="M1753.35,-581.516C1789.89,-571.708 1842.68,-556.585 1887.69,-540 1924.66,-526.379 1930.42,-513.327 1968.69,-504 2130.77,-464.504 2652.91,-453.894 2809.13,-451.57"/>
<polygon fill="red" stroke="red" points="2809.36,-455.067 2819.31,-451.423 2809.26,-448.068 2809.36,-455.067"/>
</g>
<!-- solid_loader.o&#45;&gt;solid_loader.h -->
<g id="edge45" class="edge"><title>solid_loader.o&#45;&gt;solid_loader.h</title>
<path fill="none" stroke="blue" d="M1691.06,-576.765C1681.25,-567.73 1668.87,-556.326 1658.04,-546.349"/>
<polygon fill="blue" stroke="blue" points="1660.21,-543.59 1650.49,-539.39 1655.47,-548.739 1660.21,-543.59"/>
</g>
<!-- solid_loader.o&#45;&gt;config_command.h -->
<g id="edge48" class="edge"><title>solid_loader.o&#45;&gt;config_command.h</title>
<path fill="none" stroke="blue" d="M1657.59,-584.035C1598.56,-573.636 1498.55,-555.886 1412.69,-540 1406.14,-538.789 1399.33,-537.513 1392.51,-536.228"/>
<polygon fill="blue" stroke="blue" points="1393.03,-532.764 1382.56,-534.344 1391.73,-539.642 1393.03,-532.764"/>
</g>
<!-- vector.o&#45;&gt;vector.h -->
<g id="edge102" class="edge"><title>vector.o&#45;&gt;vector.h</title>
<path fill="none" stroke="blue" d="M3672.69,-71.6966C3672.69,-63.9827 3672.69,-54.7125 3672.69,-46.1124"/>
<polygon fill="blue" stroke="blue" points="3676.19,-46.1043 3672.69,-36.1043 3669.19,-46.1044 3676.19,-46.1043"/>
</g>
<!-- aggregate_node.h&#45;&gt;ice_particle.h -->
<g id="edge79" class="edge"><title>aggregate_node.h&#45;&gt;ice_particle.h</title>
<path fill="none" stroke="blue" d="M3152.97,-651.126C3073.24,-624.61 2899.66,-566.888 2815.44,-538.879"/>
<polygon fill="blue" stroke="blue" points="2816.46,-535.53 2805.87,-535.696 2814.25,-542.173 2816.46,-535.53"/>
</g>
<!-- aggregate_node.h&#45;&gt;ice_particle.o -->
<g id="edge80" class="edge"><title>aggregate_node.h&#45;&gt;ice_particle.o</title>
<path fill="none" stroke="red" d="M3133.38,-656.003C3114.56,-653.326 3093.79,-650.455 3074.69,-648 2934.25,-629.947 2769.27,-611.593 2680.35,-601.935"/>
<polygon fill="red" stroke="red" points="2680.47,-598.428 2670.15,-600.829 2679.72,-605.387 2680.47,-598.428"/>
</g>
<!-- aggregate_edge.h -->
<g id="node44" class="node"><title>aggregate_edge.h</title>
<ellipse fill="none" stroke="black" cx="4034.69" cy="-162" rx="72.5877" ry="18"/>
<text text-anchor="middle" x="4034.69" y="-158.3" font-family="Times,serif" font-size="14.00">aggregate_edge.h</text>
</g>
<!-- aggregate_node.h&#45;&gt;aggregate_edge.h -->
<g id="edge81" class="edge"><title>aggregate_node.h&#45;&gt;aggregate_edge.h</title>
<path fill="none" stroke="blue" d="M3266.43,-661.925C3443.17,-654.051 3887.06,-632.349 3911.69,-612 3943.27,-585.903 3935.69,-563.969 3935.69,-523 3935.69,-523 3935.69,-523 3935.69,-305 3935.69,-255.828 3976.13,-211.506 4005.32,-185.92"/>
<polygon fill="blue" stroke="blue" points="4007.86,-188.355 4013.21,-179.212 4003.32,-183.022 4007.86,-188.355"/>
</g>
<!-- aggregate_node.o&#45;&gt;aggregate_node.h -->
<g id="edge82" class="edge"><title>aggregate_node.o&#45;&gt;aggregate_node.h</title>
<path fill="none" stroke="blue" d="M3165.89,-720.055C3170.26,-712.007 3175.58,-702.205 3180.45,-693.226"/>
<polygon fill="blue" stroke="blue" points="3183.62,-694.734 3185.31,-684.275 3177.47,-691.394 3183.62,-694.734"/>
</g>
<!-- aggregate_node.o&#45;&gt;twins.h -->
<g id="edge83" class="edge"><title>aggregate_node.o&#45;&gt;twins.h</title>
<path fill="none" stroke="blue" d="M3230.12,-737.29C3352.29,-734.641 3601.36,-715.688 3778.69,-612 3826.47,-584.063 3866.7,-552.854 3840.69,-504 3813.75,-453.405 3784.2,-459.093 3733.69,-432 3659.94,-392.441 3467.33,-306.413 3385.69,-288 3194.14,-244.799 2575.6,-236.727 2400.36,-235.295"/>
<polygon fill="blue" stroke="blue" points="2400.21,-231.794 2390.18,-235.215 2400.15,-238.793 2400.21,-231.794"/>
</g>
<!-- volume_convex.o&#45;&gt;volume_convex.h -->
<g id="edge49" class="edge"><title>volume_convex.o&#45;&gt;volume_convex.h</title>
<path fill="none" stroke="blue" d="M3590.91,-288.055C3587.76,-280.176 3583.94,-270.617 3580.41,-261.794"/>
<polygon fill="blue" stroke="blue" points="3583.56,-260.26 3576.6,-252.275 3577.07,-262.86 3583.56,-260.26"/>
</g>
<!-- volume_convex.o&#45;&gt;voxel_builder.h -->
<g id="edge50" class="edge"><title>volume_convex.o&#45;&gt;voxel_builder.h</title>
<path fill="none" stroke="blue" d="M3626.87,-289.291C3645.56,-279.223 3670.01,-266.06 3690.15,-255.216"/>
<polygon fill="blue" stroke="blue" points="3691.92,-258.239 3699.06,-250.416 3688.6,-252.075 3691.92,-258.239"/>
</g>
<!-- volume_convex.o&#45;&gt;twins.h -->
<g id="edge51" class="edge"><title>volume_convex.o&#45;&gt;twins.h</title>
<path fill="none" stroke="blue" d="M3544.37,-293.414C3532.97,-291.299 3520.97,-289.341 3509.69,-288 3081.14,-237.054 2557.84,-234.289 2400.55,-234.718"/>
<polygon fill="blue" stroke="blue" points="2400.28,-231.219 2390.29,-234.752 2400.3,-238.219 2400.28,-231.219"/>
</g>
<!-- volume_convex.h&#45;&gt;vector.h -->
<g id="edge52" class="edge"><title>volume_convex.h&#45;&gt;vector.h</title>
<path fill="none" stroke="blue" d="M3573.01,-215.539C3579.39,-184.847 3595.29,-119.937 3623.69,-72 3630.21,-60.9934 3639.33,-50.3364 3647.93,-41.5007"/>
<polygon fill="blue" stroke="blue" points="3650.62,-43.7596 3655.27,-34.2418 3645.7,-38.7798 3650.62,-43.7596"/>
</g>
<!-- volume_convex.h&#45;&gt;vector.o -->
<g id="edge53" class="edge"><title>volume_convex.h&#45;&gt;vector.o</title>
<path fill="none" stroke="red" d="M3581.91,-216.153C3599.97,-191.253 3633.9,-144.474 3654.78,-115.696"/>
<polygon fill="red" stroke="red" points="3657.77,-117.537 3660.8,-107.387 3652.1,-113.426 3657.77,-117.537"/>
</g>
<!-- volume_convex.h&#45;&gt;bounding_box.h -->
<g id="edge54" class="edge"><title>volume_convex.h&#45;&gt;bounding_box.h</title>
<path fill="none" stroke="blue" d="M3609.01,-218.666C3639.33,-207.61 3681.41,-192.267 3713.72,-180.489"/>
<polygon fill="blue" stroke="blue" points="3715.21,-183.671 3723.41,-176.957 3712.81,-177.094 3715.21,-183.671"/>
</g>
<!-- voxel_builder.h&#45;&gt;vector.h -->
<g id="edge94" class="edge"><title>voxel_builder.h&#45;&gt;vector.h</title>
<path fill="none" stroke="blue" d="M3777.68,-222.08C3800.41,-214.349 3825.19,-201.404 3838.69,-180 3847.23,-166.467 3845.74,-158.365 3838.69,-144 3812.44,-90.4744 3750.91,-53.9657 3710.58,-34.8082"/>
<polygon fill="blue" stroke="blue" points="3711.87,-31.5471 3701.32,-30.5354 3708.94,-37.9031 3711.87,-31.5471"/>
</g>
<!-- voxel_builder.h&#45;&gt;vector.o -->
<g id="edge95" class="edge"><title>voxel_builder.h&#45;&gt;vector.o</title>
<path fill="none" stroke="red" d="M3710.27,-216.482C3701.12,-206.759 3690.61,-193.705 3684.69,-180 3676.25,-160.47 3673.4,-136.474 3672.58,-118.322"/>
<polygon fill="red" stroke="red" points="3676.07,-118.027 3672.3,-108.127 3669.07,-118.219 3676.07,-118.027"/>
</g>
<!-- bounding_box.h&#45;&gt;vector.h -->
<g id="edge187" class="edge"><title>bounding_box.h&#45;&gt;vector.h</title>
<path fill="none" stroke="blue" d="M3755.84,-143.757C3749.12,-125.181 3737.02,-95.173 3721.69,-72 3714.63,-61.3288 3705.41,-50.7396 3696.88,-41.8643"/>
<polygon fill="blue" stroke="blue" points="3699.15,-39.1843 3689.62,-34.547 3694.18,-44.1127 3699.15,-39.1843"/>
</g>
<!-- bounding_box.h&#45;&gt;vector.o -->
<g id="edge188" class="edge"><title>bounding_box.h&#45;&gt;vector.o</title>
<path fill="none" stroke="red" d="M3741.05,-144.765C3728.72,-135.065 3712.91,-122.636 3699.61,-112.172"/>
<polygon fill="red" stroke="red" points="3701.73,-109.383 3691.7,-105.952 3697.4,-114.886 3701.73,-109.383"/>
</g>
<!-- solid_deformation.h&#45;&gt;vector.h -->
<g id="edge96" class="edge"><title>solid_deformation.h&#45;&gt;vector.h</title>
<path fill="none" stroke="blue" d="M3494.46,-144.264C3512.83,-125.321 3544.65,-94.2152 3575.69,-72 3594.78,-58.3361 3617.78,-45.6285 3636.58,-36.0834"/>
<polygon fill="blue" stroke="blue" points="3638.33,-39.1222 3645.72,-31.527 3635.21,-32.8581 3638.33,-39.1222"/>
</g>
<!-- solid_deformation.h&#45;&gt;vector.o -->
<g id="edge97" class="edge"><title>solid_deformation.h&#45;&gt;vector.o</title>
<path fill="none" stroke="red" d="M3519.36,-146.326C3552.69,-134.3 3599.6,-117.375 3632.73,-105.419"/>
<polygon fill="red" stroke="red" points="3634.32,-108.565 3642.54,-101.879 3631.95,-101.981 3634.32,-108.565"/>
</g>
<!-- thread.o -->
<g id="node38" class="node"><title>thread.o</title>
<ellipse fill="none" stroke="black" cx="689.691" cy="-450" rx="39.7935" ry="18"/>
<text text-anchor="middle" x="689.691" y="-446.3" font-family="Times,serif" font-size="14.00">thread.o</text>
</g>
<!-- pthread -->
<g id="node39" class="node"><title>pthread</title>
<ellipse fill="none" stroke="black" cx="731.691" cy="-378" rx="37.0935" ry="18"/>
<text text-anchor="middle" x="731.691" y="-374.3" font-family="Times,serif" font-size="14.00">pthread</text>
</g>
<!-- thread.o&#45;&gt;pthread -->
<g id="edge59" class="edge"><title>thread.o&#45;&gt;pthread</title>
<path fill="none" stroke="blue" d="M699.644,-432.411C704.718,-423.955 710.994,-413.494 716.644,-404.078"/>
<polygon fill="blue" stroke="blue" points="719.665,-405.846 721.809,-395.47 713.663,-402.244 719.665,-405.846"/>
</g>
<!-- thread.h -->
<g id="node40" class="node"><title>thread.h</title>
<ellipse fill="none" stroke="black" cx="636.691" cy="-378" rx="39.7935" ry="18"/>
<text text-anchor="middle" x="636.691" y="-374.3" font-family="Times,serif" font-size="14.00">thread.h</text>
</g>
<!-- thread.o&#45;&gt;thread.h -->
<g id="edge60" class="edge"><title>thread.o&#45;&gt;thread.h</title>
<path fill="none" stroke="blue" d="M677.398,-432.765C670.776,-424.018 662.473,-413.052 655.096,-403.308"/>
<polygon fill="blue" stroke="blue" points="657.744,-401.007 648.917,-395.147 652.163,-405.233 657.744,-401.007"/>
</g>
<!-- task.h -->
<g id="node41" class="node"><title>task.h</title>
<ellipse fill="none" stroke="black" cx="839.691" cy="-378" rx="31.6951" ry="18"/>
<text text-anchor="middle" x="839.691" y="-374.3" font-family="Times,serif" font-size="14.00">task.h</text>
</g>
<!-- thread.o&#45;&gt;task.h -->
<g id="edge61" class="edge"><title>thread.o&#45;&gt;task.h</title>
<path fill="none" stroke="blue" d="M716.508,-436.485C741.685,-424.736 779.425,-407.124 806.492,-394.493"/>
<polygon fill="blue" stroke="blue" points="808.001,-397.651 815.583,-390.25 805.041,-391.308 808.001,-397.651"/>
</g>
<!-- solid_builder.o -->
<g id="node42" class="node"><title>solid_builder.o</title>
<ellipse fill="none" stroke="black" cx="3501.69" cy="-810" rx="63.8893" ry="18"/>
<text text-anchor="middle" x="3501.69" y="-806.3" font-family="Times,serif" font-size="14.00">solid_builder.o</text>
</g>
<!-- solid_builder.o&#45;&gt;solid.h -->
<g id="edge70" class="edge"><title>solid_builder.o&#45;&gt;solid.h</title>
<path fill="none" stroke="blue" d="M3553.75,-799.61C3653.04,-780.211 3859.69,-732.025 3859.69,-667 3859.69,-667 3859.69,-667 3859.69,-593 3859.69,-552.553 3869.66,-532.224 3840.69,-504 3750.72,-416.348 3349.57,-388.145 3214.35,-381.04"/>
<polygon fill="blue" stroke="blue" points="3214.13,-377.524 3203.96,-380.508 3213.77,-384.515 3214.13,-377.524"/>
</g>
<!-- solid_builder.o&#45;&gt;solid.o -->
<g id="edge71" class="edge"><title>solid_builder.o&#45;&gt;solid.o</title>
<path fill="none" stroke="red" d="M3498.53,-792.02C3493.87,-765.454 3485.69,-712.4 3485.69,-667 3485.69,-667 3485.69,-667 3485.69,-593 3485.69,-472.454 3042.46,-454.223 2898.36,-451.481"/>
<polygon fill="red" stroke="red" points="2898.18,-447.977 2888.12,-451.303 2898.06,-454.976 2898.18,-447.977"/>
</g>
<!-- solid_builder.o&#45;&gt;aggregate_node.h -->
<g id="edge68" class="edge"><title>solid_builder.o&#45;&gt;aggregate_node.h</title>
<path fill="none" stroke="blue" d="M3469.99,-794.338C3414.33,-768.591 3299.02,-715.257 3236.76,-686.458"/>
<polygon fill="blue" stroke="blue" points="3238.15,-683.245 3227.6,-682.224 3235.21,-689.599 3238.15,-683.245"/>
</g>
<!-- solid_builder.o&#45;&gt;aggregate_node.o -->
<g id="edge69" class="edge"><title>solid_builder.o&#45;&gt;aggregate_node.o</title>
<path fill="none" stroke="red" d="M3451.52,-798.821C3390.73,-786.486 3288.17,-765.677 3221.46,-752.141"/>
<polygon fill="red" stroke="red" points="3221.98,-748.675 3211.48,-750.116 3220.58,-755.535 3221.98,-748.675"/>
</g>
<!-- solid_builder.h -->
<g id="node43" class="node"><title>solid_builder.h</title>
<ellipse fill="none" stroke="black" cx="3981.69" cy="-738" rx="63.8893" ry="18"/>
<text text-anchor="middle" x="3981.69" y="-734.3" font-family="Times,serif" font-size="14.00">solid_builder.h</text>
</g>
<!-- solid_builder.o&#45;&gt;solid_builder.h -->
<g id="edge67" class="edge"><title>solid_builder.o&#45;&gt;solid_builder.h</title>
<path fill="none" stroke="blue" d="M3557.5,-801.307C3630.3,-791.214 3761.6,-772.806 3873.69,-756 3887.81,-753.883 3902.96,-751.541 3917.32,-749.291"/>
<polygon fill="blue" stroke="blue" points="3918.27,-752.684 3927.6,-747.672 3917.18,-745.769 3918.27,-752.684"/>
</g>
<!-- solid_builder.h&#45;&gt;ice_particle_visitor.h -->
<g id="edge72" class="edge"><title>solid_builder.h&#45;&gt;ice_particle_visitor.h</title>
<path fill="none" stroke="blue" d="M3918.02,-736.934C3746.2,-736.123 3258.85,-729.638 2856.69,-684 2848.67,-683.089 2840.29,-681.91 2831.99,-680.597"/>
<polygon fill="blue" stroke="blue" points="2832.37,-677.112 2821.94,-678.938 2831.23,-684.019 2832.37,-677.112"/>
</g>
<!-- solid_builder.h&#45;&gt;vector.h -->
<g id="edge73" class="edge"><title>solid_builder.h&#45;&gt;vector.h</title>
<path fill="none" stroke="blue" d="M4017.02,-722.993C4062.49,-702.366 4135.69,-659.188 4135.69,-595 4135.69,-595 4135.69,-595 4135.69,-161 4135.69,-75.101 3840.72,-35.861 3721.66,-23.5208"/>
<polygon fill="blue" stroke="blue" points="3721.67,-20.0044 3711.37,-22.4764 3720.96,-26.9686 3721.67,-20.0044"/>
</g>
<!-- solid_builder.h&#45;&gt;vector.o -->
<g id="edge74" class="edge"><title>solid_builder.h&#45;&gt;vector.o</title>
<path fill="none" stroke="red" d="M3984.93,-719.759C3998.81,-639.898 4045.11,-303.075 3871.69,-144 3830.99,-106.669 3766.96,-95.0918 3722.56,-91.781"/>
<polygon fill="red" stroke="red" points="3722.77,-88.2871 3712.57,-91.1496 3722.33,-95.2732 3722.77,-88.2871"/>
</g>
<!-- aggregate_edge.h&#45;&gt;vector.h -->
<g id="edge166" class="edge"><title>aggregate_edge.h&#45;&gt;vector.h</title>
<path fill="none" stroke="blue" d="M4023.05,-143.87C4008.12,-123.335 3980.23,-89.5055 3947.69,-72 3875.94,-33.3986 3780.29,-22.6234 3722.78,-19.7852"/>
<polygon fill="blue" stroke="blue" points="3722.64,-16.276 3712.5,-19.3427 3722.34,-23.2695 3722.64,-16.276"/>
</g>
<!-- aggregate_edge.h&#45;&gt;vector.o -->
<g id="edge167" class="edge"><title>aggregate_edge.h&#45;&gt;vector.o</title>
<path fill="none" stroke="red" d="M3979.32,-150.292C3907.97,-136.496 3785.23,-112.763 3718.74,-99.9044"/>
<polygon fill="red" stroke="red" points="3719.05,-96.3995 3708.57,-97.9373 3717.72,-103.272 3719.05,-96.3995"/>
</g>
<!-- matrix_storage.o -->
<g id="node45" class="node"><title>matrix_storage.o</title>
<ellipse fill="none" stroke="black" cx="798.691" cy="-522" rx="70.6878" ry="18"/>
<text text-anchor="middle" x="798.691" y="-518.3" font-family="Times,serif" font-size="14.00">matrix_storage.o</text>
</g>
<!-- matrix_storage.o&#45;&gt;thread.o -->
<g id="edge87" class="edge"><title>matrix_storage.o&#45;&gt;thread.o</title>
<path fill="none" stroke="red" d="M773.957,-505.116C758.018,-494.88 737.178,-481.496 720.211,-470.6"/>
<polygon fill="red" stroke="red" points="722.044,-467.618 711.738,-465.159 718.261,-473.508 722.044,-467.618"/>
</g>
<!-- matrix_storage.o&#45;&gt;thread.h -->
<g id="edge86" class="edge"><title>matrix_storage.o&#45;&gt;thread.h</title>
<path fill="none" stroke="blue" d="M732.01,-515.881C699.123,-509.652 662.028,-496.3 640.691,-468 627.492,-450.494 627.683,-425.087 630.483,-405.897"/>
<polygon fill="blue" stroke="blue" points="633.945,-406.421 632.238,-395.965 627.051,-405.203 633.945,-406.421"/>
</g>
<!-- matrix_storage.o&#45;&gt;task.h -->
<g id="edge88" class="edge"><title>matrix_storage.o&#45;&gt;task.h</title>
<path fill="none" stroke="blue" d="M806.635,-504.108C811.227,-493.84 816.84,-480.366 820.691,-468 827.062,-447.541 832.015,-423.781 835.264,-405.959"/>
<polygon fill="blue" stroke="blue" points="838.737,-406.423 837.022,-395.968 831.842,-405.21 838.737,-406.423"/>
</g>
<!-- new.o -->
<g id="node46" class="node"><title>new.o</title>
<ellipse fill="none" stroke="black" cx="779.691" cy="-450" rx="32.4942" ry="18"/>
<text text-anchor="middle" x="779.691" y="-446.3" font-family="Times,serif" font-size="14.00">new.o</text>
</g>
<!-- matrix_storage.o&#45;&gt;new.o -->
<g id="edge84" class="edge"><title>matrix_storage.o&#45;&gt;new.o</title>
<path fill="none" stroke="red" d="M793.994,-503.697C791.877,-495.898 789.329,-486.509 786.973,-477.829"/>
<polygon fill="red" stroke="red" points="790.331,-476.838 784.333,-468.104 783.575,-478.672 790.331,-476.838"/>
</g>
<!-- matrix_storage.h -->
<g id="node47" class="node"><title>matrix_storage.h</title>
<ellipse fill="none" stroke="black" cx="446.691" cy="-450" rx="70.6878" ry="18"/>
<text text-anchor="middle" x="446.691" y="-446.3" font-family="Times,serif" font-size="14.00">matrix_storage.h</text>
</g>
<!-- matrix_storage.o&#45;&gt;matrix_storage.h -->
<g id="edge85" class="edge"><title>matrix_storage.o&#45;&gt;matrix_storage.h</title>
<path fill="none" stroke="blue" d="M744.846,-510.292C681.831,-497.761 577.588,-477.031 510.549,-463.699"/>
<polygon fill="blue" stroke="blue" points="511.02,-460.224 500.529,-461.706 509.655,-467.09 511.02,-460.224"/>
</g>
<!-- profile.h -->
<g id="node48" class="node"><title>profile.h</title>
<ellipse fill="none" stroke="black" cx="1022.69" cy="-378" rx="40.8928" ry="18"/>
<text text-anchor="middle" x="1022.69" y="-374.3" font-family="Times,serif" font-size="14.00">profile.h</text>
</g>
<!-- matrix_storage.o&#45;&gt;profile.h -->
<g id="edge89" class="edge"><title>matrix_storage.o&#45;&gt;profile.h</title>
<path fill="none" stroke="blue" d="M823.951,-504.987C865.163,-478.862 946.746,-427.144 991.503,-398.771"/>
<polygon fill="blue" stroke="blue" points="993.632,-401.565 1000.2,-393.255 989.884,-395.653 993.632,-401.565"/>
</g>
<!-- profile.o -->
<g id="node49" class="node"><title>profile.o</title>
<ellipse fill="none" stroke="black" cx="1022.69" cy="-450" rx="40.8928" ry="18"/>
<text text-anchor="middle" x="1022.69" y="-446.3" font-family="Times,serif" font-size="14.00">profile.o</text>
</g>
<!-- matrix_storage.o&#45;&gt;profile.o -->
<g id="edge90" class="edge"><title>matrix_storage.o&#45;&gt;profile.o</title>
<path fill="none" stroke="red" d="M841.615,-507.586C881.55,-495.106 940.707,-476.62 980.428,-464.207"/>
<polygon fill="red" stroke="red" points="981.583,-467.513 990.084,-461.19 979.495,-460.832 981.583,-467.513"/>
</g>
<!-- matrix_storage.h&#45;&gt;twins.h -->
<g id="edge91" class="edge"><title>matrix_storage.h&#45;&gt;twins.h</title>
<path fill="none" stroke="blue" d="M448.302,-431.868C452.54,-397.675 467.336,-321.387 516.691,-288 593.008,-236.374 2027.69,-234.764 2306.85,-234.941"/>
<polygon fill="blue" stroke="blue" points="2307.03,-238.441 2317.04,-234.948 2307.04,-231.441 2307.03,-238.441"/>
</g>
<!-- profile.h&#45;&gt;file_out.h -->
<g id="edge92" class="edge"><title>profile.h&#45;&gt;file_out.h</title>
<path fill="none" stroke="blue" d="M1058.75,-369.352C1075.92,-365.982 1096.79,-362.278 1115.69,-360 1432.65,-321.801 1816.14,-310.798 1956.68,-307.927"/>
<polygon fill="blue" stroke="blue" points="1956.84,-311.424 1966.77,-307.726 1956.7,-304.426 1956.84,-311.424"/>
</g>
<!-- profile.o&#45;&gt;profile.h -->
<g id="edge93" class="edge"><title>profile.o&#45;&gt;profile.h</title>
<path fill="none" stroke="blue" d="M1022.69,-431.697C1022.69,-423.983 1022.69,-414.712 1022.69,-406.112"/>
<polygon fill="blue" stroke="blue" points="1026.19,-406.104 1022.69,-396.104 1019.19,-406.104 1026.19,-406.104"/>
</g>
<!-- snowflake_simulate -->
<g id="node50" class="node"><title>snowflake_simulate</title>
<ellipse fill="none" stroke="black" cx="2353.69" cy="-666" rx="81.4863" ry="18"/>
<text text-anchor="middle" x="2353.69" y="-662.3" font-family="Times,serif" font-size="14.00">snowflake_simulate</text>
</g>
<!-- snowflake_simulate&#45;&gt;ice_particle.h -->
<g id="edge114" class="edge"><title>snowflake_simulate&#45;&gt;ice_particle.h</title>
<path fill="none" stroke="blue" d="M2427.97,-658.571C2511.05,-650.421 2639.61,-634.65 2682.69,-612 2711.15,-597.036 2735.53,-568.906 2750.78,-548.263"/>
<polygon fill="blue" stroke="blue" points="2753.77,-550.102 2756.75,-539.934 2748.08,-546.026 2753.77,-550.102"/>
</g>
<!-- snowflake_simulate&#45;&gt;solid.h -->
<g id="edge109" class="edge"><title>snowflake_simulate&#45;&gt;solid.h</title>
<path fill="none" stroke="blue" d="M2408.9,-652.646C2440.2,-644.141 2479.27,-630.92 2510.69,-612 2530.62,-600 2530.28,-590.225 2548.69,-576 2644.42,-502.025 2665.89,-473.058 2779.69,-432 2899.15,-388.9 3050.72,-380.446 3124.81,-379.049"/>
<polygon fill="blue" stroke="blue" points="3125.22,-382.544 3135.16,-378.891 3125.11,-375.544 3125.22,-382.544"/>
</g>
<!-- snowflake_simulate&#45;&gt;solid.o -->
<g id="edge110" class="edge"><title>snowflake_simulate&#45;&gt;solid.o</title>
<path fill="none" stroke="red" d="M2433.83,-662.887C2509.58,-658.707 2625.36,-646.605 2719.69,-612 2776.3,-591.232 2800.1,-589.396 2834.69,-540 2847.33,-521.957 2851.83,-497.171 2853.32,-478.337"/>
<polygon fill="red" stroke="red" points="2856.82,-478.478 2853.88,-468.3 2849.83,-478.091 2856.82,-478.478"/>
</g>
<!-- snowflake_simulate&#45;&gt;ice_particle.o -->
<g id="edge115" class="edge"><title>snowflake_simulate&#45;&gt;ice_particle.o</title>
<path fill="none" stroke="red" d="M2403.59,-651.669C2449.23,-639.473 2516.54,-621.491 2563.03,-609.069"/>
<polygon fill="red" stroke="red" points="2564.16,-612.391 2572.91,-606.429 2562.35,-605.629 2564.16,-612.391"/>
</g>
<!-- snowflake_simulate&#45;&gt;config_parser.h -->
<g id="edge103" class="edge"><title>snowflake_simulate&#45;&gt;config_parser.h</title>
<path fill="none" stroke="blue" d="M2275.19,-661.202C2102.09,-652.535 1698.16,-630.611 1638.69,-612 1592.43,-597.524 1545.28,-566.609 1516.26,-545.315"/>
<polygon fill="blue" stroke="blue" points="1518.32,-542.486 1508.21,-539.315 1514.14,-548.098 1518.32,-542.486"/>
</g>
<!-- snowflake_simulate&#45;&gt;config_parser.o -->
<g id="edge104" class="edge"><title>snowflake_simulate&#45;&gt;config_parser.o</title>
<path fill="none" stroke="red" d="M2276.9,-659.909C2080.71,-646.905 1563.07,-612.591 1370.88,-599.852"/>
<polygon fill="red" stroke="red" points="1371.09,-596.358 1360.88,-599.189 1370.63,-603.343 1371.09,-596.358"/>
</g>
<!-- snowflake_simulate&#45;&gt;solid_writer.h -->
<g id="edge107" class="edge"><title>snowflake_simulate&#45;&gt;solid_writer.h</title>
<path fill="none" stroke="blue" d="M2280.85,-657.995C2211.49,-650.063 2113.27,-635.146 2082.69,-612 2062.59,-596.784 2050.79,-570.082 2044.36,-549.884"/>
<polygon fill="blue" stroke="blue" points="2047.64,-548.624 2041.47,-540.01 2040.92,-550.591 2047.64,-548.624"/>
</g>
<!-- snowflake_simulate&#45;&gt;solid_writer.o -->
<g id="edge108" class="edge"><title>snowflake_simulate&#45;&gt;solid_writer.o</title>
<path fill="none" stroke="red" d="M2311.84,-650.496C2279.02,-639.124 2233.34,-623.295 2199.17,-611.452"/>
<polygon fill="red" stroke="red" points="2200,-608.036 2189.4,-608.069 2197.71,-614.65 2200,-608.036"/>
</g>
<!-- snowflake_simulate&#45;&gt;voxelbuilder_adda.h -->
<g id="edge111" class="edge"><title>snowflake_simulate&#45;&gt;voxelbuilder_adda.h</title>
<path fill="none" stroke="blue" d="M2431.02,-660.397C2494.77,-656.705 2587.58,-651.568 2668.69,-648 2727.45,-645.415 3681.01,-649.037 3726.69,-612 3744.61,-597.471 3749.29,-570.862 3749.98,-550.511"/>
<polygon fill="blue" stroke="blue" points="3753.48,-550.264 3750.02,-540.251 3746.48,-550.238 3753.48,-550.264"/>
</g>
<!-- snowflake_simulate&#45;&gt;voxelbuilder_adda.o -->
<g id="edge112" class="edge"><title>snowflake_simulate&#45;&gt;voxelbuilder_adda.o</title>
<path fill="none" stroke="red" d="M2431.35,-660.673C2495.11,-657.153 2587.74,-652.114 2668.69,-648 3004.19,-630.948 3088.44,-633.492 3423.69,-612 3464.93,-609.356 3510.66,-605.755 3548.96,-602.547"/>
<polygon fill="red" stroke="red" points="3549.38,-606.025 3559.05,-601.698 3548.79,-599.05 3549.38,-606.025"/>
</g>
<!-- snowflake_simulate&#45;&gt;file_out.h -->
<g id="edge113" class="edge"><title>snowflake_simulate&#45;&gt;file_out.h</title>
<path fill="none" stroke="blue" d="M2337.65,-648.213C2282.33,-590.296 2099.28,-398.685 2034.59,-330.966"/>
<polygon fill="blue" stroke="blue" points="2036.74,-328.152 2027.3,-323.339 2031.68,-332.987 2036.74,-328.152"/>
</g>
<!-- snowflake_simulate&#45;&gt;solid_loader.h -->
<g id="edge105" class="edge"><title>snowflake_simulate&#45;&gt;solid_loader.h</title>
<path fill="none" stroke="blue" d="M2290.52,-654.587C2229.34,-644.342 2134,-627.959 2051.69,-612 1921.82,-586.819 1770.12,-553.659 1689.64,-535.767"/>
<polygon fill="blue" stroke="blue" points="1690.23,-532.314 1679.71,-533.557 1688.71,-539.147 1690.23,-532.314"/>
</g>
<!-- snowflake_simulate&#45;&gt;solid_loader.o -->
<g id="edge106" class="edge"><title>snowflake_simulate&#45;&gt;solid_loader.o</title>
<path fill="none" stroke="red" d="M2279.11,-658.755C2176.08,-649.859 1984.48,-632.341 1821.69,-612 1805.23,-609.943 1787.46,-607.415 1770.99,-604.944"/>
<polygon fill="red" stroke="red" points="1771.35,-601.458 1760.94,-603.417 1770.3,-608.378 1771.35,-601.458"/>
</g>
<!-- snowflake_simulate&#45;&gt;twins.h -->
<g id="edge116" class="edge"><title>snowflake_simulate&#45;&gt;twins.h</title>
<path fill="none" stroke="blue" d="M2353.69,-647.951C2353.69,-621.292 2353.69,-568.115 2353.69,-523 2353.69,-523 2353.69,-523 2353.69,-377 2353.69,-336.996 2353.69,-290.653 2353.69,-262.08"/>
<polygon fill="blue" stroke="blue" points="2357.19,-262.049 2353.69,-252.049 2350.19,-262.049 2357.19,-262.049"/>
</g>
<!-- list_indexed.h -->
<g id="node51" class="node"><title>list_indexed.h</title>
<ellipse fill="none" stroke="black" cx="2441.69" cy="-594" rx="60.3893" ry="18"/>
<text text-anchor="middle" x="2441.69" y="-590.3" font-family="Times,serif" font-size="14.00">list_indexed.h</text>
</g>
<!-- snowflake_simulate&#45;&gt;list_indexed.h -->
<g id="edge117" class="edge"><title>snowflake_simulate&#45;&gt;list_indexed.h</title>
<path fill="none" stroke="blue" d="M2374.55,-648.411C2386.22,-639.125 2400.93,-627.421 2413.61,-617.338"/>
<polygon fill="blue" stroke="blue" points="2415.94,-619.952 2421.59,-610.988 2411.59,-614.474 2415.94,-619.952"/>
</g>
<!-- snowflake_simulate3 -->
<g id="node52" class="node"><title>snowflake_simulate3</title>
<ellipse fill="none" stroke="black" cx="1439.69" cy="-666" rx="85.5853" ry="18"/>
<text text-anchor="middle" x="1439.69" y="-662.3" font-family="Times,serif" font-size="14.00">snowflake_simulate3</text>
</g>
<!-- snowflake_simulate3&#45;&gt;ice_particle.h -->
<g id="edge131" class="edge"><title>snowflake_simulate3&#45;&gt;ice_particle.h</title>
<path fill="none" stroke="blue" d="M1512.99,-656.524C1582.03,-647.838 1688.09,-632.681 1778.69,-612 1832.56,-599.703 1843.3,-585.746 1897.69,-576 2051.4,-548.458 2522.74,-530.877 2699.65,-525.097"/>
<polygon fill="blue" stroke="blue" points="2699.99,-528.588 2709.87,-524.765 2699.76,-521.591 2699.99,-528.588"/>
</g>
<!-- snowflake_simulate3&#45;&gt;solid.h -->
<g id="edge126" class="edge"><title>snowflake_simulate3&#45;&gt;solid.h</title>
<path fill="none" stroke="blue" d="M1365.88,-656.712C1310.17,-648.759 1240.41,-634.572 1222.69,-612 1173.18,-548.938 1175.32,-485.88 1234.69,-432 1270.87,-399.165 2839.07,-382.241 3125.15,-379.424"/>
<polygon fill="blue" stroke="blue" points="3125.19,-382.923 3135.16,-379.326 3125.12,-375.924 3125.19,-382.923"/>
</g>
<!-- snowflake_simulate3&#45;&gt;solid.o -->
<g id="edge127" class="edge"><title>snowflake_simulate3&#45;&gt;solid.o</title>
<path fill="none" stroke="red" d="M1456.53,-648.226C1480.06,-625.138 1521.98,-585.351 1540.69,-576 1549.5,-571.599 1877.93,-505.273 1887.69,-504 2240.74,-457.951 2671.45,-451.823 2809.14,-451.078"/>
<polygon fill="red" stroke="red" points="2809.31,-454.577 2819.3,-451.03 2809.28,-447.577 2809.31,-454.577"/>
</g>
<!-- snowflake_simulate3&#45;&gt;ice_particle.o -->
<g id="edge132" class="edge"><title>snowflake_simulate3&#45;&gt;ice_particle.o</title>
<path fill="none" stroke="red" d="M1522.84,-661.419C1757.42,-651.241 2413.67,-622.223 2510.69,-612 2525.69,-610.42 2541.8,-608.118 2556.79,-605.716"/>
<polygon fill="red" stroke="red" points="2557.66,-609.12 2566.96,-604.045 2556.53,-602.212 2557.66,-609.12"/>
</g>
<!-- snowflake_simulate3&#45;&gt;config_parser.h -->
<g id="edge118" class="edge"><title>snowflake_simulate3&#45;&gt;config_parser.h</title>
<path fill="none" stroke="blue" d="M1428.03,-647.853C1417.03,-629.36 1403.85,-599.422 1415.69,-576 1422.52,-562.495 1434.59,-551.589 1446.92,-543.261"/>
<polygon fill="blue" stroke="blue" points="1448.83,-546.193 1455.44,-537.908 1445.11,-540.267 1448.83,-546.193"/>
</g>
<!-- snowflake_simulate3&#45;&gt;config_parser.o -->
<g id="edge119" class="edge"><title>snowflake_simulate3&#45;&gt;config_parser.o</title>
<path fill="none" stroke="red" d="M1407.47,-649.116C1386.71,-638.88 1359.56,-625.498 1337.46,-614.602"/>
<polygon fill="red" stroke="red" points="1338.84,-611.384 1328.33,-610.101 1335.75,-617.662 1338.84,-611.384"/>
</g>
<!-- snowflake_simulate3&#45;&gt;solid_writer.h -->
<g id="edge122" class="edge"><title>snowflake_simulate3&#45;&gt;solid_writer.h</title>
<path fill="none" stroke="blue" d="M1468.36,-648.985C1506.17,-628.625 1575.34,-593.965 1638.69,-576 1670.08,-567.098 1868.07,-542.973 1972.84,-530.577"/>
<polygon fill="blue" stroke="blue" points="1973.46,-534.027 1982.98,-529.378 1972.64,-527.075 1973.46,-534.027"/>
</g>
<!-- snowflake_simulate3&#45;&gt;solid_writer.o -->
<g id="edge123" class="edge"><title>snowflake_simulate3&#45;&gt;solid_writer.o</title>
<path fill="none" stroke="red" d="M1515.55,-657.542C1655.76,-643.757 1953.23,-614.512 2085.68,-601.49"/>
<polygon fill="red" stroke="red" points="2086.08,-604.967 2095.69,-600.505 2085.4,-598.001 2086.08,-604.967"/>
</g>
<!-- snowflake_simulate3&#45;&gt;solid_writer_prototype.h -->
<g id="edge124" class="edge"><title>snowflake_simulate3&#45;&gt;solid_writer_prototype.h</title>
<path fill="none" stroke="blue" d="M1512.14,-656.317C1594.67,-646.284 1733.53,-628.968 1852.69,-612 1955.12,-597.414 1979.76,-586.489 2082.69,-576 2415.57,-542.08 2500.56,-557.757 2834.69,-540 2897.61,-536.656 2968.16,-532.544 3024.03,-529.202"/>
<polygon fill="blue" stroke="blue" points="3024.51,-532.679 3034.29,-528.587 3024.09,-525.692 3024.51,-532.679"/>
</g>
<!-- snowflake_simulate3&#45;&gt;solid_writer_prototype.o -->
<g id="edge125" class="edge"><title>snowflake_simulate3&#45;&gt;solid_writer_prototype.o</title>
<path fill="none" stroke="red" d="M1522.96,-661.553C1607.32,-658.074 1741.57,-652.578 1857.69,-648 2336.71,-629.114 2908.76,-607.6 3140.5,-598.928"/>
<polygon fill="red" stroke="red" points="3140.75,-602.421 3150.61,-598.549 3140.48,-595.426 3140.75,-602.421"/>
</g>
<!-- snowflake_simulate3&#45;&gt;voxelbuilder_adda.h -->
<g id="edge128" class="edge"><title>snowflake_simulate3&#45;&gt;voxelbuilder_adda.h</title>
<path fill="none" stroke="blue" d="M1522.55,-661.225C1606.88,-657.478 1741.36,-651.766 1857.69,-648 2189.84,-637.248 3022.87,-652.632 3352.69,-612 3416.79,-604.103 3592.16,-561.877 3686.56,-538.538"/>
<polygon fill="blue" stroke="blue" points="3687.68,-541.866 3696.55,-536.064 3686,-535.071 3687.68,-541.866"/>
</g>
<!-- snowflake_simulate3&#45;&gt;voxelbuilder_adda.o -->
<g id="edge129" class="edge"><title>snowflake_simulate3&#45;&gt;voxelbuilder_adda.o</title>
<path fill="none" stroke="red" d="M1522.55,-661.198C1606.88,-657.431 1741.36,-651.702 1857.69,-648 2553.52,-625.854 2728.44,-647.97 3423.69,-612 3465.3,-609.847 3511.44,-606.267 3549.93,-602.946"/>
<polygon fill="red" stroke="red" points="3550.4,-606.419 3560.06,-602.063 3549.79,-599.445 3550.4,-606.419"/>
</g>
<!-- snowflake_simulate3&#45;&gt;file_out.h -->
<g id="edge130" class="edge"><title>snowflake_simulate3&#45;&gt;file_out.h</title>
<path fill="none" stroke="blue" d="M1363.55,-657.598C1301.14,-649.923 1219.51,-635.659 1196.69,-612 1113.92,-526.183 1180.63,-410.389 1288.69,-360 1348.69,-332.02 1798.5,-314.23 1956.79,-308.782"/>
<polygon fill="blue" stroke="blue" points="1957.36,-312.264 1967.23,-308.426 1957.12,-305.268 1957.36,-312.264"/>
</g>
<!-- snowflake_simulate3&#45;&gt;solid_loader.h -->
<g id="edge120" class="edge"><title>snowflake_simulate3&#45;&gt;solid_loader.h</title>
<path fill="none" stroke="blue" d="M1445.62,-647.907C1453.32,-628.042 1468.57,-595.501 1491.69,-576 1505.74,-564.144 1546.9,-549.321 1581.15,-538.369"/>
<polygon fill="blue" stroke="blue" points="1582.57,-541.59 1591.05,-535.245 1580.46,-534.914 1582.57,-541.59"/>
</g>
<!-- snowflake_simulate3&#45;&gt;solid_loader.o -->
<g id="edge121" class="edge"><title>snowflake_simulate3&#45;&gt;solid_loader.o</title>
<path fill="none" stroke="red" d="M1491.24,-651.586C1538.1,-639.393 1606.99,-621.464 1654.62,-609.07"/>
<polygon fill="red" stroke="red" points="1655.65,-612.419 1664.45,-606.514 1653.89,-605.645 1655.65,-612.419"/>
</g>
<!-- snowflake_simulate3&#45;&gt;twins.h -->
<g id="edge133" class="edge"><title>snowflake_simulate3&#45;&gt;twins.h</title>
<path fill="none" stroke="blue" d="M1354.01,-664.891C1159.33,-663.859 696.392,-656.678 642.691,-612 554.566,-538.682 509.545,-443.873 587.691,-360 708.26,-230.595 2039.68,-232.839 2307.08,-234.609"/>
<polygon fill="blue" stroke="blue" points="2307.2,-238.11 2317.22,-234.679 2307.25,-231.11 2307.2,-238.11"/>
</g>
<!-- snowflake_simulate3&#45;&gt;matrix_storage.o -->
<g id="edge135" class="edge"><title>snowflake_simulate3&#45;&gt;matrix_storage.o</title>
<path fill="none" stroke="red" d="M1354.37,-663.934C1220.07,-661.08 966.373,-650.584 885.691,-612 869.997,-604.495 839.628,-571.222 819.253,-547.565"/>
<polygon fill="red" stroke="red" points="821.657,-544.991 812.503,-539.656 816.332,-549.535 821.657,-544.991"/>
</g>
<!-- snowflake_simulate3&#45;&gt;matrix_storage.h -->
<g id="edge134" class="edge"><title>snowflake_simulate3&#45;&gt;matrix_storage.h</title>
<path fill="none" stroke="blue" d="M1353.76,-664.912C1146.96,-663.977 633.992,-657.085 571.691,-612 529.836,-581.711 561.496,-543.913 528.691,-504 517.728,-490.661 502.507,-479.546 488.152,-470.997"/>
<polygon fill="blue" stroke="blue" points="489.796,-467.906 479.372,-466.009 486.338,-473.992 489.796,-467.906"/>
</g>
<!-- snowflake_simulate3&#45;&gt;profile.h -->
<g id="edge138" class="edge"><title>snowflake_simulate3&#45;&gt;profile.h</title>
<path fill="none" stroke="blue" d="M1354.07,-664.826C1258.11,-662.607 1111.28,-652.458 1075.69,-612 1022.85,-551.923 1102.85,-506.11 1072.69,-432 1067.85,-420.1 1058.98,-409.3 1050.04,-400.601"/>
<polygon fill="blue" stroke="blue" points="1052.35,-397.967 1042.6,-393.809 1047.63,-403.137 1052.35,-397.967"/>
</g>
<!-- snowflake_simulate3&#45;&gt;profile.o -->
<g id="edge139" class="edge"><title>snowflake_simulate3&#45;&gt;profile.o</title>
<path fill="none" stroke="red" d="M1353.64,-665.734C1248.66,-664.652 1079.92,-655.871 1037.69,-612 1003.55,-576.533 1009.15,-514.111 1016.06,-478.304"/>
<polygon fill="red" stroke="red" points="1019.57,-478.611 1018.2,-468.105 1012.72,-477.171 1019.57,-478.611"/>
</g>
<!-- element_randomizer.h -->
<g id="node53" class="node"><title>element_randomizer.h</title>
<ellipse fill="none" stroke="black" cx="428.691" cy="-522" rx="90.9839" ry="18"/>
<text text-anchor="middle" x="428.691" y="-518.3" font-family="Times,serif" font-size="14.00">element_randomizer.h</text>
</g>
<!-- snowflake_simulate3&#45;&gt;element_randomizer.h -->
<g id="edge136" class="edge"><title>snowflake_simulate3&#45;&gt;element_randomizer.h</title>
<path fill="none" stroke="blue" d="M1354.69,-663.091C1143.88,-657.924 608.612,-641.991 533.691,-612 499.658,-598.377 468.71,-569.123 449.369,-547.862"/>
<polygon fill="blue" stroke="blue" points="451.793,-545.32 442.543,-540.155 446.553,-549.962 451.793,-545.32"/>
</g>
<!-- element_randomizer.o -->
<g id="node54" class="node"><title>element_randomizer.o</title>
<ellipse fill="none" stroke="black" cx="742.691" cy="-594" rx="90.9839" ry="18"/>
<text text-anchor="middle" x="742.691" y="-590.3" font-family="Times,serif" font-size="14.00">element_randomizer.o</text>
</g>
<!-- snowflake_simulate3&#45;&gt;element_randomizer.o -->
<g id="edge137" class="edge"><title>snowflake_simulate3&#45;&gt;element_randomizer.o</title>
<path fill="none" stroke="red" d="M1359.06,-659.61C1244.95,-651.567 1029.94,-634.882 847.691,-612 838.308,-610.822 828.477,-609.435 818.753,-607.97"/>
<polygon fill="red" stroke="red" points="819.097,-604.481 808.681,-606.42 818.033,-611.4 819.097,-604.481"/>
</g>
<!-- element_randomizer.h&#45;&gt;twins.h -->
<g id="edge151" class="edge"><title>element_randomizer.h&#45;&gt;twins.h</title>
<path fill="none" stroke="blue" d="M400.485,-504.859C387.635,-495.833 373.742,-483.305 366.691,-468 359.996,-453.468 361.433,-447.112 366.691,-432 393.514,-354.905 407.72,-324.584 480.691,-288 564.761,-245.852 2025.62,-236.602 2307.01,-235.208"/>
<polygon fill="blue" stroke="blue" points="2307.29,-238.707 2317.27,-235.158 2307.26,-231.707 2307.29,-238.707"/>
</g>
<!-- element_randomizer.o&#45;&gt;thread.o -->
<g id="edge157" class="edge"><title>element_randomizer.o&#45;&gt;thread.o</title>
<path fill="none" stroke="red" d="M734.424,-576.018C729.555,-565.718 723.441,-552.242 718.691,-540 710.682,-519.356 702.983,-495.474 697.533,-477.65"/>
<polygon fill="red" stroke="red" points="700.838,-476.488 694.598,-467.925 694.136,-478.51 700.838,-476.488"/>
</g>
<!-- element_randomizer.o&#45;&gt;thread.h -->
<g id="edge156" class="edge"><title>element_randomizer.o&#45;&gt;thread.h</title>
<path fill="none" stroke="blue" d="M718.736,-576.445C690.294,-555.166 644.364,-515.275 625.691,-468 617.813,-448.056 621.596,-423.809 626.773,-405.664"/>
<polygon fill="blue" stroke="blue" points="630.145,-406.61 629.816,-396.02 623.469,-404.504 630.145,-406.61"/>
</g>
<!-- element_randomizer.o&#45;&gt;task.h -->
<g id="edge153" class="edge"><title>element_randomizer.o&#45;&gt;task.h</title>
<path fill="none" stroke="blue" d="M812.794,-582.469C837.855,-574.952 863.604,-562.071 878.691,-540 907.322,-498.114 877.972,-437.501 856.956,-403.862"/>
<polygon fill="blue" stroke="blue" points="859.676,-401.621 851.305,-395.127 853.799,-405.424 859.676,-401.621"/>
</g>
<!-- element_randomizer.o&#45;&gt;matrix_storage.o -->
<g id="edge155" class="edge"><title>element_randomizer.o&#45;&gt;matrix_storage.o</title>
<path fill="none" stroke="red" d="M756.247,-576.055C763.057,-567.543 771.436,-557.068 778.946,-547.681"/>
<polygon fill="red" stroke="red" points="781.746,-549.784 785.26,-539.789 776.28,-545.411 781.746,-549.784"/>
</g>
<!-- element_randomizer.o&#45;&gt;matrix_storage.h -->
<g id="edge154" class="edge"><title>element_randomizer.o&#45;&gt;matrix_storage.h</title>
<path fill="none" stroke="blue" d="M710.767,-577.001C674.697,-558.994 614.172,-528.992 561.691,-504 537.831,-492.638 511.022,-480.26 489.294,-470.326"/>
<polygon fill="blue" stroke="blue" points="490.559,-467.056 480.008,-466.087 487.652,-473.424 490.559,-467.056"/>
</g>
<!-- element_randomizer.o&#45;&gt;profile.h -->
<g id="edge158" class="edge"><title>element_randomizer.o&#45;&gt;profile.h</title>
<path fill="none" stroke="blue" d="M806.751,-581.079C836.85,-573.139 871.911,-560.308 898.691,-540 945.055,-504.842 936.172,-477.299 972.691,-432 981.002,-421.69 990.878,-410.949 999.648,-401.854"/>
<polygon fill="blue" stroke="blue" points="1002.21,-404.244 1006.7,-394.647 997.202,-399.349 1002.21,-404.244"/>
</g>
<!-- element_randomizer.o&#45;&gt;profile.o -->
<g id="edge159" class="edge"><title>element_randomizer.o&#45;&gt;profile.o</title>
<path fill="none" stroke="red" d="M827.729,-587.434C871.566,-581.084 924.004,-567.76 963.691,-540 986.014,-524.385 1002.15,-497.37 1011.85,-477.189"/>
<polygon fill="red" stroke="red" points="1015.11,-478.46 1016.09,-467.91 1008.75,-475.55 1015.11,-478.46"/>
</g>
<!-- element_randomizer.o&#45;&gt;element_randomizer.h -->
<g id="edge152" class="edge"><title>element_randomizer.o&#45;&gt;element_randomizer.h</title>
<path fill="none" stroke="blue" d="M684.733,-580.079C631.49,-568.21 552.562,-550.615 496.43,-538.101"/>
<polygon fill="blue" stroke="blue" points="497.099,-534.664 486.577,-535.904 495.575,-541.497 497.099,-534.664"/>
</g>
<!-- mt_test -->
<g id="node55" class="node"><title>mt_test</title>
<ellipse fill="none" stroke="black" cx="531.691" cy="-666" rx="37.0935" ry="18"/>
<text text-anchor="middle" x="531.691" y="-662.3" font-family="Times,serif" font-size="14.00">mt_test</text>
</g>
<!-- mt_test&#45;&gt;matrix_storage.o -->
<g id="edge169" class="edge"><title>mt_test&#45;&gt;matrix_storage.o</title>
<path fill="none" stroke="red" d="M547.314,-649.48C567.705,-629.97 605.225,-596.549 642.691,-576 672.996,-559.378 709.451,-546.639 739.496,-537.821"/>
<polygon fill="red" stroke="red" points="740.77,-541.097 749.422,-534.981 738.845,-534.367 740.77,-541.097"/>
</g>
<!-- mt_test&#45;&gt;matrix_storage.h -->
<g id="edge168" class="edge"><title>mt_test&#45;&gt;matrix_storage.h</title>
<path fill="none" stroke="blue" d="M500.208,-656.312C453.011,-641.392 365.528,-605.943 328.691,-540 320.888,-526.032 319.999,-517.433 328.691,-504 340.964,-485.034 361.811,-472.789 382.6,-464.912"/>
<polygon fill="blue" stroke="blue" points="383.827,-468.191 392.116,-461.592 381.521,-461.582 383.827,-468.191"/>
</g>
<!-- mt_test&#45;&gt;element_randomizer.h -->
<g id="edge170" class="edge"><title>mt_test&#45;&gt;element_randomizer.h</title>
<path fill="none" stroke="blue" d="M512.92,-650.409C500.97,-640.473 485.722,-626.529 474.691,-612 459.98,-592.625 447.613,-567.855 439.42,-549.369"/>
<polygon fill="blue" stroke="blue" points="442.588,-547.877 435.417,-540.078 436.16,-550.647 442.588,-547.877"/>
</g>
<!-- mt_test&#45;&gt;element_randomizer.o -->
<g id="edge171" class="edge"><title>mt_test&#45;&gt;element_randomizer.o</title>
<path fill="none" stroke="red" d="M561.475,-655.119C594.322,-644.222 647.868,-626.458 688.255,-613.059"/>
<polygon fill="red" stroke="red" points="689.569,-616.311 697.958,-609.84 687.365,-609.667 689.569,-616.311"/>
</g>
<!-- snowflake_prototype&#45;test -->
<g id="node56" class="node"><title>snowflake_prototype&#45;test</title>
<ellipse fill="none" stroke="black" cx="2965.69" cy="-666" rx="100.182" ry="18"/>
<text text-anchor="middle" x="2965.69" y="-662.3" font-family="Times,serif" font-size="14.00">snowflake_prototype&#45;test</text>
</g>
<!-- snowflake_prototype&#45;test&#45;&gt;ice_particle.h -->
<g id="edge178" class="edge"><title>snowflake_prototype&#45;test&#45;&gt;ice_particle.h</title>
<path fill="none" stroke="blue" d="M2942.59,-648.433C2906.76,-622.737 2837.78,-573.268 2798,-544.735"/>
<polygon fill="blue" stroke="blue" points="2799.9,-541.794 2789.74,-538.81 2795.82,-547.482 2799.9,-541.794"/>
</g>
<!-- snowflake_prototype&#45;test&#45;&gt;solid.h -->
<g id="edge176" class="edge"><title>snowflake_prototype&#45;test&#45;&gt;solid.h</title>
<path fill="none" stroke="blue" d="M3039.56,-653.798C3052.91,-651.827 3066.71,-649.823 3079.69,-648 3140.29,-639.487 3312.35,-658.011 3352.69,-612 3420.52,-534.641 3270.64,-435.928 3201.85,-396.455"/>
<polygon fill="blue" stroke="blue" points="3203.52,-393.383 3193.1,-391.503 3200.08,-399.475 3203.52,-393.383"/>
</g>
<!-- snowflake_prototype&#45;test&#45;&gt;solid.o -->
<g id="edge177" class="edge"><title>snowflake_prototype&#45;test&#45;&gt;solid.o</title>
<path fill="none" stroke="red" d="M2956.71,-647.849C2937.08,-610.334 2890.23,-520.814 2867.09,-476.602"/>
<polygon fill="red" stroke="red" points="2870.14,-474.878 2862.4,-467.641 2863.94,-478.123 2870.14,-474.878"/>
</g>
<!-- snowflake_prototype&#45;test&#45;&gt;ice_particle.o -->
<g id="edge179" class="edge"><title>snowflake_prototype&#45;test&#45;&gt;ice_particle.o</title>
<path fill="none" stroke="red" d="M2897.26,-652.811C2840.89,-642.564 2758.93,-627.193 2687.69,-612 2681.98,-610.781 2676.02,-609.459 2670.09,-608.109"/>
<polygon fill="red" stroke="red" points="2670.71,-604.659 2660.18,-605.822 2669.13,-611.48 2670.71,-604.659"/>
</g>
<!-- snowflake_prototype&#45;test&#45;&gt;config_parser.h -->
<g id="edge172" class="edge"><title>snowflake_prototype&#45;test&#45;&gt;config_parser.h</title>
<path fill="none" stroke="blue" d="M2897.53,-652.764C2829.05,-640.118 2731.44,-620.993 2715.69,-612 2696.84,-601.236 2702.42,-585.058 2682.69,-576 2569.54,-524.04 1686.19,-555.834 1562.69,-540 1556.52,-539.209 1550.11,-538.143 1543.76,-536.928"/>
<polygon fill="blue" stroke="blue" points="1544.35,-533.477 1533.85,-534.914 1542.96,-540.336 1544.35,-533.477"/>
</g>
<!-- snowflake_prototype&#45;test&#45;&gt;config_parser.o -->
<g id="edge173" class="edge"><title>snowflake_prototype&#45;test&#45;&gt;config_parser.o</title>
<path fill="none" stroke="red" d="M2896.66,-652.9C2883.43,-650.959 2869.66,-649.198 2856.69,-648 2317.42,-598.174 2179.83,-633.484 1638.69,-612 1546.72,-608.349 1440.86,-602.872 1371.8,-599.128"/>
<polygon fill="red" stroke="red" points="1371.64,-595.614 1361.46,-598.566 1371.26,-602.604 1371.64,-595.614"/>
</g>
<!-- snowflake_prototype&#45;test&#45;&gt;solid_writer.h -->
<g id="edge180" class="edge"><title>snowflake_prototype&#45;test&#45;&gt;solid_writer.h</title>
<path fill="none" stroke="blue" d="M2928.04,-649.148C2867.42,-623.636 2754.82,-576.272 2753.69,-576 2632.25,-546.837 2262.19,-530.855 2107.17,-525.288"/>
<polygon fill="blue" stroke="blue" points="2106.95,-521.778 2096.83,-524.92 2106.7,-528.773 2106.95,-521.778"/>
</g>
<!-- snowflake_prototype&#45;test&#45;&gt;solid_writer.o -->
<g id="edge181" class="edge"><title>snowflake_prototype&#45;test&#45;&gt;solid_writer.o</title>
<path fill="none" stroke="red" d="M2895.15,-653.15C2882.37,-651.246 2869.15,-649.433 2856.69,-648 2642.4,-623.36 2587.78,-628.272 2372.69,-612 2321.18,-608.103 2262.93,-603.619 2219.16,-600.234"/>
<polygon fill="red" stroke="red" points="2219.17,-596.724 2208.93,-599.443 2218.63,-603.704 2219.17,-596.724"/>
</g>
<!-- snowflake_prototype&#45;test&#45;&gt;solid_writer_prototype.h -->
<g id="edge182" class="edge"><title>snowflake_prototype&#45;test&#45;&gt;solid_writer_prototype.h</title>
<path fill="none" stroke="blue" d="M3000.59,-649.061C3018.75,-639.778 3040.65,-626.959 3057.69,-612 3078.76,-593.504 3097.66,-567.615 3110.16,-548.525"/>
<polygon fill="blue" stroke="blue" points="3113.16,-550.333 3115.6,-540.023 3107.26,-546.561 3113.16,-550.333"/>
</g>
<!-- snowflake_prototype&#45;test&#45;&gt;solid_writer_prototype.o -->
<g id="edge183" class="edge"><title>snowflake_prototype&#45;test&#45;&gt;solid_writer_prototype.o</title>
<path fill="none" stroke="red" d="M3021.68,-651.003C3067.27,-639.605 3131.73,-623.491 3179.8,-611.472"/>
<polygon fill="red" stroke="red" points="3180.95,-614.794 3189.8,-608.973 3179.25,-608.003 3180.95,-614.794"/>
</g>
<!-- snowflake_prototype&#45;test&#45;&gt;voxelbuilder_adda.h -->
<g id="edge185" class="edge"><title>snowflake_prototype&#45;test&#45;&gt;voxelbuilder_adda.h</title>
<path fill="none" stroke="blue" d="M3037.01,-653.299C3051.13,-651.285 3065.85,-649.395 3079.69,-648 3154.97,-640.412 3707.62,-666.897 3759.69,-612 3775.18,-595.669 3769.67,-569.398 3761.93,-549.623"/>
<polygon fill="blue" stroke="blue" points="3765.07,-548.051 3757.91,-540.236 3758.63,-550.806 3765.07,-548.051"/>
</g>
<!-- snowflake_prototype&#45;test&#45;&gt;voxelbuilder_adda.o -->
<g id="edge186" class="edge"><title>snowflake_prototype&#45;test&#45;&gt;voxelbuilder_adda.o</title>
<path fill="none" stroke="red" d="M3038.28,-653.574C3052.02,-651.583 3066.28,-649.63 3079.69,-648 3248.97,-627.417 3291.95,-628.339 3461.69,-612 3490.59,-609.219 3522.19,-606.128 3550.39,-603.352"/>
<polygon fill="red" stroke="red" points="3551,-606.808 3560.61,-602.345 3550.32,-599.842 3551,-606.808"/>
</g>
<!-- snowflake_prototype&#45;test&#45;&gt;file_out.h -->
<g id="edge184" class="edge"><title>snowflake_prototype&#45;test&#45;&gt;file_out.h</title>
<path fill="none" stroke="blue" d="M2966.43,-647.904C2967.29,-604.201 2962.95,-487.914 2896.69,-432 2770.24,-325.284 2240.27,-309.621 2066.86,-307.366"/>
<polygon fill="blue" stroke="blue" points="2066.73,-303.864 2056.69,-307.243 2066.65,-310.863 2066.73,-303.864"/>
</g>
<!-- snowflake_prototype&#45;test&#45;&gt;solid_loader.h -->
<g id="edge174" class="edge"><title>snowflake_prototype&#45;test&#45;&gt;solid_loader.h</title>
<path fill="none" stroke="blue" d="M2899.84,-652.357C2847.36,-641.58 2778.68,-625.706 2753.69,-612 2733.29,-600.812 2737.09,-585.13 2715.69,-576 2639.26,-543.391 2051.69,-544.099 1968.69,-540 1876.72,-535.457 1770.59,-530.062 1702.63,-526.588"/>
<polygon fill="blue" stroke="blue" points="1702.64,-523.083 1692.47,-526.068 1702.28,-530.074 1702.64,-523.083"/>
</g>
<!-- snowflake_prototype&#45;test&#45;&gt;solid_loader.o -->
<g id="edge175" class="edge"><title>snowflake_prototype&#45;test&#45;&gt;solid_loader.o</title>
<path fill="none" stroke="red" d="M2896.06,-652.987C2883.01,-651.064 2869.46,-649.287 2856.69,-648 2843.22,-646.643 2026.74,-609.46 1779.12,-598.2"/>
<polygon fill="red" stroke="red" points="1778.95,-594.689 1768.8,-597.732 1778.63,-601.682 1778.95,-594.689"/>
</g>
</g>
</svg>
