<?xml version="1.0" encoding="UTF-8" standalone="no"?>
<!DOCTYPE svg PUBLIC "-//W3C//DTD SVG 1.1//EN"
 "http://www.w3.org/Graphics/SVG/1.1/DTD/svg11.dtd">
<!-- Generated by graphviz version 2.38.0 (20140413.2041)
 -->
<!-- Title: G Pages: 1 -->
<svg width="509pt" height="620pt"
 viewBox="0.00 0.00 508.89 620.00" xmlns="http://www.w3.org/2000/svg" xmlns:xlink="http://www.w3.org/1999/xlink">
<g id="graph0" class="graph" transform="scale(1 1) rotate(0) translate(4 616)">
<title>G</title>
<polygon fill="white" stroke="none" points="-4,4 -4,-616 504.89,-616 504.89,4 -4,4"/>
<!-- resourceobjectjansson.o -->
<g id="node1" class="node"><title>resourceobjectjansson.o</title>
<ellipse fill="none" stroke="black" cx="167.895" cy="-90" rx="94.7833" ry="18"/>
<text text-anchor="middle" x="167.895" y="-86.3" font-family="Times,serif" font-size="14.00">resourceobjectjansson.o</text>
</g>
<!-- jansson -->
<g id="node2" class="node"><title>jansson</title>
<ellipse fill="none" stroke="black" cx="167.895" cy="-18" rx="37.0935" ry="18"/>
<text text-anchor="middle" x="167.895" y="-14.3" font-family="Times,serif" font-size="14.00">jansson</text>
</g>
<!-- resourceobjectjansson.o&#45;&gt;jansson -->
<g id="edge1" class="edge"><title>resourceobjectjansson.o&#45;&gt;jansson</title>
<path fill="none" stroke="blue" d="M167.895,-71.6966C167.895,-63.9827 167.895,-54.7125 167.895,-46.1124"/>
<polygon fill="blue" stroke="blue" points="171.395,-46.1043 167.895,-36.1043 164.395,-46.1044 171.395,-46.1043"/>
</g>
<!-- wand2maike -->
<g id="node3" class="node"><title>wand2maike</title>
<ellipse fill="none" stroke="black" cx="55.895" cy="-162" rx="55.7903" ry="18"/>
<text text-anchor="middle" x="55.895" y="-158.3" font-family="Times,serif" font-size="14.00">wand2maike</text>
</g>
<!-- wand2maike&#45;&gt;resourceobjectjansson.o -->
<g id="edge2" class="edge"><title>wand2maike&#45;&gt;resourceobjectjansson.o</title>
<path fill="none" stroke="red" d="M80.4739,-145.638C95.8275,-136.042 115.84,-123.534 132.843,-112.908"/>
<polygon fill="red" stroke="red" points="134.794,-115.815 141.419,-107.547 131.084,-109.879 134.794,-115.815"/>
</g>
<!-- systemtargetinfo.o -->
<g id="node4" class="node"><title>systemtargetinfo.o</title>
<ellipse fill="none" stroke="black" cx="329.895" cy="-162" rx="76.8869" ry="18"/>
<text text-anchor="middle" x="329.895" y="-158.3" font-family="Times,serif" font-size="14.00">systemtargetinfo.o</text>
</g>
<!-- systemtargetinfo.o&#45;&gt;resourceobjectjansson.o -->
<g id="edge3" class="edge"><title>systemtargetinfo.o&#45;&gt;resourceobjectjansson.o</title>
<path fill="none" stroke="red" d="M294.743,-145.811C270.874,-135.497 239.085,-121.761 213.301,-110.62"/>
<polygon fill="red" stroke="red" points="214.668,-107.398 204.1,-106.644 211.891,-113.823 214.668,-107.398"/>
</g>
<!-- target_factorydelegatordefault.o -->
<g id="node5" class="node"><title>target_factorydelegatordefault.o</title>
<ellipse fill="none" stroke="black" cx="291.895" cy="-306" rx="124.278" ry="18"/>
<text text-anchor="middle" x="291.895" y="-302.3" font-family="Times,serif" font-size="14.00">target_factorydelegatordefault.o</text>
</g>
<!-- target_factorydelegatordefault.o&#45;&gt;resourceobjectjansson.o -->
<g id="edge4" class="edge"><title>target_factorydelegatordefault.o&#45;&gt;resourceobjectjansson.o</title>
<path fill="none" stroke="red" d="M268.538,-288.178C256.615,-278.645 242.615,-265.869 232.895,-252 203.234,-209.68 184.148,-151.834 174.776,-118.239"/>
<polygon fill="red" stroke="red" points="178.061,-116.975 172.074,-108.234 171.303,-118.801 178.061,-116.975"/>
</g>
<!-- expressionevaluator.o -->
<g id="node13" class="node"><title>expressionevaluator.o</title>
<ellipse fill="none" stroke="black" cx="329.895" cy="-234" rx="87.9851" ry="18"/>
<text text-anchor="middle" x="329.895" y="-230.3" font-family="Times,serif" font-size="14.00">expressionevaluator.o</text>
</g>
<!-- target_factorydelegatordefault.o&#45;&gt;expressionevaluator.o -->
<g id="edge17" class="edge"><title>target_factorydelegatordefault.o&#45;&gt;expressionevaluator.o</title>
<path fill="none" stroke="red" d="M301.288,-287.697C305.66,-279.644 310.952,-269.894 315.79,-260.982"/>
<polygon fill="red" stroke="red" points="318.915,-262.563 320.61,-252.104 312.763,-259.223 318.915,-262.563"/>
</g>
<!-- maike.o -->
<g id="node6" class="node"><title>maike.o</title>
<ellipse fill="none" stroke="black" cx="296.895" cy="-522" rx="39.7935" ry="18"/>
<text text-anchor="middle" x="296.895" y="-518.3" font-family="Times,serif" font-size="14.00">maike.o</text>
</g>
<!-- maike.o&#45;&gt;resourceobjectjansson.o -->
<g id="edge5" class="edge"><title>maike.o&#45;&gt;resourceobjectjansson.o</title>
<path fill="none" stroke="red" d="M267.365,-509.98C221.885,-490.871 139.895,-446.991 139.895,-379 139.895,-379 139.895,-379 139.895,-233 139.895,-192.27 151.121,-146.189 159.356,-117.862"/>
<polygon fill="red" stroke="red" points="162.712,-118.856 162.229,-108.272 156.007,-116.847 162.712,-118.856"/>
</g>
<!-- session.hpp -->
<g id="node11" class="node"><title>session.hpp</title>
<ellipse fill="none" stroke="black" cx="367.895" cy="-378" rx="51.9908" ry="18"/>
<text text-anchor="middle" x="367.895" y="-374.3" font-family="Times,serif" font-size="14.00">session.hpp</text>
</g>
<!-- maike.o&#45;&gt;session.hpp -->
<g id="edge12" class="edge"><title>maike.o&#45;&gt;session.hpp</title>
<path fill="none" stroke="blue" d="M297.713,-503.962C299.229,-485.298 303.555,-454.964 315.895,-432 321.997,-420.645 331.266,-410.074 340.297,-401.407"/>
<polygon fill="blue" stroke="blue" points="342.728,-403.927 347.753,-394.599 338.008,-398.758 342.728,-403.927"/>
</g>
<!-- session.o -->
<g id="node12" class="node"><title>session.o</title>
<ellipse fill="none" stroke="black" cx="367.895" cy="-450" rx="42.7926" ry="18"/>
<text text-anchor="middle" x="367.895" y="-446.3" font-family="Times,serif" font-size="14.00">session.o</text>
</g>
<!-- maike.o&#45;&gt;session.o -->
<g id="edge13" class="edge"><title>maike.o&#45;&gt;session.o</title>
<path fill="none" stroke="red" d="M312.652,-505.465C321.989,-496.26 333.996,-484.421 344.431,-474.134"/>
<polygon fill="red" stroke="red" points="347.026,-476.49 351.69,-466.977 342.111,-471.506 347.026,-476.49"/>
</g>
<!-- libmaike.a -->
<g id="node7" class="node"><title>libmaike.a</title>
<ellipse fill="none" stroke="black" cx="133.895" cy="-594" rx="48.1917" ry="18"/>
<text text-anchor="middle" x="133.895" y="-590.3" font-family="Times,serif" font-size="14.00">libmaike.a</text>
</g>
<!-- libmaike.a&#45;&gt;maike.o -->
<g id="edge6" class="edge"><title>libmaike.a&#45;&gt;maike.o</title>
<path fill="none" stroke="red" d="M164.172,-579.998C191.138,-568.417 230.685,-551.434 259.594,-539.019"/>
<polygon fill="red" stroke="red" points="261.149,-542.16 268.957,-534.998 258.387,-535.728 261.149,-542.16"/>
</g>
<!-- maike.hpp -->
<g id="node8" class="node"><title>maike.hpp</title>
<ellipse fill="none" stroke="black" cx="247.895" cy="-594" rx="48.1917" ry="18"/>
<text text-anchor="middle" x="247.895" y="-590.3" font-family="Times,serif" font-size="14.00">maike.hpp</text>
</g>
<!-- maike.hpp&#45;&gt;maike.o -->
<g id="edge7" class="edge"><title>maike.hpp&#45;&gt;maike.o</title>
<path fill="none" stroke="red" d="M259.507,-576.411C265.488,-567.868 272.9,-557.278 279.544,-547.787"/>
<polygon fill="red" stroke="red" points="282.499,-549.669 285.366,-539.47 276.764,-545.655 282.499,-549.669"/>
</g>
<!-- maike -->
<g id="node9" class="node"><title>maike</title>
<ellipse fill="none" stroke="black" cx="346.895" cy="-594" rx="32.4942" ry="18"/>
<text text-anchor="middle" x="346.895" y="-590.3" font-family="Times,serif" font-size="14.00">maike</text>
</g>
<!-- maike&#45;&gt;maike.o -->
<g id="edge8" class="edge"><title>maike&#45;&gt;maike.o</title>
<path fill="none" stroke="red" d="M335.549,-577.116C329.31,-568.38 321.433,-557.353 314.42,-547.535"/>
<polygon fill="red" stroke="red" points="317.203,-545.41 308.543,-539.307 311.507,-549.479 317.203,-545.41"/>
</g>
<!-- libmaike.so -->
<g id="node10" class="node"><title>libmaike.so</title>
<ellipse fill="none" stroke="black" cx="448.895" cy="-594" rx="51.9908" ry="18"/>
<text text-anchor="middle" x="448.895" y="-590.3" font-family="Times,serif" font-size="14.00">libmaike.so</text>
</g>
<!-- libmaike.so&#45;&gt;maike.o -->
<g id="edge9" class="edge"><title>libmaike.so&#45;&gt;maike.o</title>
<path fill="none" stroke="red" d="M418.865,-579.17C394.207,-567.815 359.208,-551.697 333.021,-539.637"/>
<polygon fill="red" stroke="red" points="334.354,-536.398 323.807,-535.394 331.426,-542.756 334.354,-536.398"/>
</g>
<!-- session.hpp&#45;&gt;systemtargetinfo.o -->
<g id="edge14" class="edge"><title>session.hpp&#45;&gt;systemtargetinfo.o</title>
<path fill="none" stroke="red" d="M398.694,-363.27C414.391,-354.487 432.004,-341.442 440.895,-324 448.161,-309.745 442.429,-303.926 440.895,-288 437.77,-255.551 446.137,-242.314 426.895,-216 415.808,-200.839 399.021,-189.523 382.511,-181.329"/>
<polygon fill="red" stroke="red" points="383.95,-178.138 373.406,-177.094 380.997,-184.485 383.95,-178.138"/>
</g>
<!-- session.hpp&#45;&gt;target_factorydelegatordefault.o -->
<g id="edge10" class="edge"><title>session.hpp&#45;&gt;target_factorydelegatordefault.o</title>
<path fill="none" stroke="red" d="M350.268,-360.765C340.6,-351.86 328.434,-340.654 317.714,-330.78"/>
<polygon fill="red" stroke="red" points="319.947,-328.078 310.22,-323.878 315.204,-333.227 319.947,-328.078"/>
</g>
<!-- session.hpp&#45;&gt;expressionevaluator.o -->
<g id="edge16" class="edge"><title>session.hpp&#45;&gt;expressionevaluator.o</title>
<path fill="none" stroke="red" d="M391.802,-361.954C404.18,-352.692 418.095,-339.609 424.895,-324 431.286,-309.332 432.997,-301.797 424.895,-288 416.021,-272.888 401.1,-261.769 385.68,-253.732"/>
<polygon fill="red" stroke="red" points="387.114,-250.538 376.586,-249.35 384.075,-256.844 387.114,-250.538"/>
</g>
<!-- session.o&#45;&gt;session.hpp -->
<g id="edge11" class="edge"><title>session.o&#45;&gt;session.hpp</title>
<path fill="none" stroke="blue" d="M367.895,-431.697C367.895,-423.983 367.895,-414.712 367.895,-406.112"/>
<polygon fill="blue" stroke="blue" points="371.395,-406.104 367.895,-396.104 364.395,-406.104 371.395,-406.104"/>
</g>
<!-- expressionevaluator.o&#45;&gt;systemtargetinfo.o -->
<g id="edge15" class="edge"><title>expressionevaluator.o&#45;&gt;systemtargetinfo.o</title>
<path fill="none" stroke="red" d="M329.895,-215.697C329.895,-207.983 329.895,-198.712 329.895,-190.112"/>
<polygon fill="red" stroke="red" points="333.395,-190.104 329.895,-180.104 326.395,-190.104 333.395,-190.104"/>
</g>
</g>
</svg>
