<?xml version="1.0" encoding="UTF-8" standalone="no"?>
<!DOCTYPE svg PUBLIC "-//W3C//DTD SVG 1.1//EN"
 "http://www.w3.org/Graphics/SVG/1.1/DTD/svg11.dtd">
<!-- Generated by graphviz version 2.38.0 (20140413.2041)
 -->
<!-- Title: G Pages: 1 -->
<svg width="669pt" height="257pt"
 viewBox="0.00 0.00 668.57 257.00" xmlns="http://www.w3.org/2000/svg" xmlns:xlink="http://www.w3.org/1999/xlink">
<g id="graph0" class="graph" transform="scale(1 1) rotate(0) translate(4 253)">
<title>G</title>
<polygon fill="white" stroke="none" points="-4,4 -4,-253 664.574,-253 664.574,4 -4,4"/>
<!-- Application -->
<g id="node1" class="node"><title>Application</title>
<ellipse fill="none" stroke="black" cx="427.574" cy="-231" rx="59.5901" ry="18"/>
<text text-anchor="middle" x="427.574" y="-227.3" font-family="Andika" font-size="14.00">Application</text>
</g>
<!-- Maike -->
<g id="node2" class="node"><title>Maike</title>
<ellipse fill="none" stroke="black" cx="298.574" cy="-132" rx="36.2938" ry="18"/>
<text text-anchor="middle" x="298.574" y="-128.3" font-family="Andika" font-size="14.00">Maike</text>
</g>
<!-- Application&#45;&gt;Maike -->
<g id="edge1" class="edge"><title>Application&#45;&gt;Maike</title>
<path fill="none" stroke="black" d="M375.208,-222.168C344.182,-216.346 309.108,-207.285 299.574,-195 292.018,-185.265 291.02,-171.84 292.225,-159.971"/>
<polygon fill="black" stroke="black" points="295.686,-160.488 293.742,-150.073 288.767,-159.427 295.686,-160.488"/>
<text text-anchor="middle" x="352.574" y="-183.8" font-family="Andika" font-size="14.00">ResourceObject</text>
</g>
<!-- Maike&#45;&gt;Application -->
<g id="edge2" class="edge"><title>Maike&#45;&gt;Application</title>
<path fill="none" stroke="black" d="M331.208,-140.544C354.502,-147.401 385.195,-159.634 405.574,-180 412.034,-186.457 416.748,-195.132 420.114,-203.443"/>
<polygon fill="black" stroke="black" points="416.821,-204.629 423.471,-212.877 423.416,-202.282 416.821,-204.629"/>
<text text-anchor="middle" x="468.574" y="-183.8" font-family="Andika" font-size="14.00">ResourceObject</text>
</g>
<!-- Plug&#45;in -->
<g id="node3" class="node"><title>Plug&#45;in</title>
<ellipse fill="none" stroke="black" cx="298.574" cy="-18" rx="40.8928" ry="18"/>
<text text-anchor="middle" x="298.574" y="-14.3" font-family="Andika" font-size="14.00">Plug&#45;in</text>
</g>
<!-- Maike&#45;&gt;Plug&#45;in -->
<g id="edge3" class="edge"><title>Maike&#45;&gt;Plug&#45;in</title>
<path fill="none" stroke="black" d="M261.994,-130.752C191.078,-129.413 38.9977,-122.06 6.57362,-84 -2.07295,-73.8504 -2.27568,-63.9733 6.57362,-54 22.2822,-36.2961 168.428,-25.8765 247.814,-21.4769"/>
<polygon fill="black" stroke="black" points="248.289,-24.9564 258.085,-20.9206 247.91,-17.9667 248.289,-24.9564"/>
<text text-anchor="middle" x="59.5736" y="-65.3" font-family="Andika" font-size="14.00">ResourceObject</text>
</g>
<!-- Maike&#45;&gt;Plug&#45;in -->
<g id="edge4" class="edge"><title>Maike&#45;&gt;Plug&#45;in</title>
<path fill="none" stroke="black" d="M263.283,-127.392C204.958,-120.052 98.3959,-100.008 135.574,-54 149.564,-36.6861 205.589,-27.5426 248.084,-23.0018"/>
<polygon fill="black" stroke="black" points="248.691,-26.4584 258.288,-21.9705 247.987,-19.4938 248.691,-26.4584"/>
<text text-anchor="middle" x="162.574" y="-65.3" font-family="Andika" font-size="14.00">Targets</text>
</g>
<!-- Maike&#45;&gt;Plug&#45;in -->
<g id="edge5" class="edge"><title>Maike&#45;&gt;Plug&#45;in</title>
<path fill="none" stroke="black" d="M266.951,-122.667C247.566,-115.746 224.291,-103.757 212.574,-84 205.772,-72.5319 205.132,-65.0633 212.574,-54 221.356,-40.9435 235.946,-32.7552 250.636,-27.621"/>
<polygon fill="black" stroke="black" points="251.714,-30.9512 260.245,-24.6676 249.658,-24.2602 251.714,-30.9512"/>
<text text-anchor="middle" x="244.574" y="-72.8" font-family="Andika" font-size="14.00">Target</text>
<text text-anchor="middle" x="244.574" y="-57.8" font-family="Andika" font-size="14.00">directory</text>
</g>
<!-- Plug&#45;in&#45;&gt;Application -->
<g id="edge9" class="edge"><title>Plug&#45;in&#45;&gt;Application</title>
<path fill="none" stroke="black" d="M339.416,-19.9047C395.082,-22.0614 490.513,-29.3542 513.574,-54 692.527,-245.253 548.753,-162.109 525.574,-195 517.325,-206.705 504.789,-214.517 491.413,-219.725"/>
<polygon fill="black" stroke="black" points="489.911,-216.539 481.573,-223.075 492.167,-223.165 489.911,-216.539"/>
<text text-anchor="middle" x="629.074" y="-150.8" font-family="Andika" font-size="14.00">Compiler</text>
<text text-anchor="middle" x="629.074" y="-135.8" font-family="Andika" font-size="14.00">standard</text>
<text text-anchor="middle" x="629.074" y="-120.8" font-family="Andika" font-size="14.00">output</text>
<text text-anchor="middle" x="629.074" y="-105.8" font-family="Andika" font-size="14.00">streams</text>
</g>
<!-- Plug&#45;in&#45;&gt;Maike -->
<g id="edge6" class="edge"><title>Plug&#45;in&#45;&gt;Maike</title>
<path fill="none" stroke="black" d="M298.574,-36.1705C298.574,-54.1594 298.574,-82.6769 298.574,-103.746"/>
<polygon fill="black" stroke="black" points="295.074,-103.99 298.574,-113.99 302.074,-103.99 295.074,-103.99"/>
<text text-anchor="middle" x="344.074" y="-65.3" font-family="Andika" font-size="14.00">Dependencies</text>
</g>
<!-- Plug&#45;in&#45;&gt;Maike -->
<g id="edge7" class="edge"><title>Plug&#45;in&#45;&gt;Maike</title>
<path fill="none" stroke="black" d="M337.606,-23.5124C356.938,-27.9394 378.642,-36.6951 390.574,-54 398.142,-64.977 397.534,-72.6278 390.574,-84 379.57,-101.977 359.283,-113.354 340.553,-120.401"/>
<polygon fill="black" stroke="black" points="339.274,-117.14 330.958,-123.704 341.553,-123.759 339.274,-117.14"/>
<text text-anchor="middle" x="422.574" y="-65.3" font-family="Andika" font-size="14.00">Targets</text>
</g>
<!-- Plug&#45;in&#45;&gt;Maike -->
<g id="edge8" class="edge"><title>Plug&#45;in&#45;&gt;Maike</title>
<path fill="none" stroke="black" d="M338.393,-22.4249C379.445,-26.8786 439.406,-36.2763 453.574,-54 486.69,-95.4281 400.448,-116.334 343.701,-125.322"/>
<polygon fill="black" stroke="black" points="342.849,-121.91 333.484,-126.864 343.894,-128.832 342.849,-121.91"/>
<text text-anchor="middle" x="485.074" y="-72.8" font-family="Andika" font-size="14.00">Files</text>
<text text-anchor="middle" x="485.074" y="-57.8" font-family="Andika" font-size="14.00">to scan</text>
</g>
</g>
</svg>
